<?xml version="1.0" encoding="utf-8"?>
<!-- Generator: Adobe Illustrator 19.1.0, SVG Export Plug-In . SVG Version: 6.00 Build 0)  -->
<svg version="1.1" id="Layer_1" xmlns="http://www.w3.org/2000/svg" xmlns:xlink="http://www.w3.org/1999/xlink" x="0px" y="0px"
	 viewBox="0 0 110 110" style="enable-background:new 0 0 110 110;" xml:space="preserve">
<style type="text/css">
	.st0{fill:#FFFFFF;}
</style>
<g>
	<path class="st0" d="M55,5C27.5,5,5,27.5,5,55s22.5,50,50,50s50-22.5,50-50S82.5,5,55,5z M55,96.7c-22.9,0-41.7-18.8-41.7-41.7
		S32.1,13.3,55,13.3S96.7,32.1,96.7,55S77.9,96.7,55,96.7z"/>
	<circle class="st0" cx="69.6" cy="44.6" r="6.3"/>
	<circle class="st0" cx="40.4" cy="44.6" r="6.3"/>
	<path class="st0" d="M67.9,66.3L40.8,77.1c-1.3,0.4-1.7,1.7-1.3,2.5c0.4,0.8,1.7,1.7,2.5,1.3L69.2,70c1.3-0.4,1.7-1.7,1.3-2.5
		S68.8,65.8,67.9,66.3z"/>
</g>
</svg>
