<?xml version="1.0" encoding="utf-8"?>
<!-- Generator: Adobe Illustrator 19.1.0, SVG Export Plug-In . SVG Version: 6.00 Build 0)  -->
<svg version="1.1" id="Layer_1" xmlns="http://www.w3.org/2000/svg" xmlns:xlink="http://www.w3.org/1999/xlink" x="0px" y="0px"
	 viewBox="0 0 110 110" style="enable-background:new 0 0 110 110;" xml:space="preserve">
<style type="text/css">
	.st0{fill:#2D9E86;}
	.st1{fill:#FFFFFF;}
</style>
<circle class="st0" cx="55" cy="55" r="53"/>
<g>
	<g>
		<path class="st1" d="M46,60.6c-0.3-0.2-2.8-2.1-9.7-2.6c-0.4,0-0.8-0.3-1.1-0.5c-0.4-0.3-0.9-0.6-1.2-1c-0.5-0.6-1.1-1.2-1.6-1.9
			C29,50,25.8,49,25.3,48.8c-0.7-0.3-3.2,0.1-2,1.7c0.1,0,3.8,5.3,4.1,5.7c0.4,0.7,0.9,1.1,1.4,1.6c0.4,0.5,0.9,0.9,1.3,1.4
			c0,0-2.4-1.4-3-2c-0.3-0.3-0.4-0.7-0.6-1c-0.2-0.4-0.5-0.8-0.7-1.1c-0.3-0.5-0.6-0.9-1-1.4c-0.4-0.6-0.9-1.1-1.3-1.7
			c-0.3-0.3-0.6-0.7-0.8-1c-1.1-1.8,0.2-2.9,1.4-3c-0.1-0.2-0.6-5.6-0.7-6.5c-0.3-2.6-0.6-4.6-2.1-5.1c-0.4-0.1-0.7-0.1-0.9,0.2
			c-0.3,0.4-0.5,2.3-0.6,3.5c0,0-0.7,6.4-0.5,9.5c0.1,1.6,5.1,12.7,6.5,14.4c1.4,1.7,12.7,8.2,12.7,8.2c0.4,0.3,2.5,1.9,2.5,4v4.6
			l12.1,0l0-4.2c0-0.8,0.2-1.5,0.3-2.3c0.3-0.9,0.1-2.5-0.1-3.2C51.8,64.7,46.6,61,46,60.6z"/>
		<path class="st1" d="M90.4,40c-0.1-1.2-0.3-3.1-0.6-3.5c-0.3-0.3-0.6-0.4-0.9-0.2c-1.5,0.5-1.8,2.5-2.1,5.1
			C86.6,42.4,86,47.8,86,48c1.2,0.1,2.5,1.2,1.4,3c-0.2,0.4-0.5,0.7-0.8,1c-0.4,0.6-0.9,1.1-1.3,1.7c-0.3,0.4-0.7,0.9-1,1.4
			c-0.3,0.4-0.5,0.7-0.7,1.1c-0.2,0.3-0.3,0.7-0.6,1c-0.6,0.6-3,2-3,2c0.4-0.5,0.9-0.9,1.3-1.4c0.5-0.5,0.9-0.8,1.4-1.6
			c0.2-0.4,4-5.7,4.1-5.7c1.2-1.7-1.3-2.1-2-1.7C84.2,49,81,50,77.6,54.6c-0.5,0.7-1.1,1.2-1.6,1.9c-0.3,0.4-0.8,0.7-1.2,1
			c-0.3,0.2-0.7,0.5-1.1,0.5c-6.9,0.5-9.4,2.3-9.7,2.6c-0.6,0.4-5.8,4.2-7.2,10.5c-0.1,0.6-0.3,2.3-0.1,3.2c0.1,0.8,0.2,1.5,0.3,2.3
			l0,4.2l12.1,0v-4.6c0-2.1,2.1-3.7,2.5-4c0,0,11.3-6.5,12.7-8.2c1.4-1.7,6.5-12.8,6.5-14.4C91,46.5,90.4,40,90.4,40z"/>
		<circle class="st1" cx="48.5" cy="34.7" r="5.4"/>
		<circle class="st1" cx="61.5" cy="35.9" r="5.3"/>
		<path class="st1" d="M61.1,60.4c0.6-0.6,1.2-1.1,1.7-1.4l0.1-0.1c0.6-0.5,1.9-1.3,4.5-2l-0.5-3.2v-3.1c0.6,1.4,1.1,3.4,1.5,6
			c1.1-0.3,2.5-0.5,4-0.6c-1.2-7.5-3.1-10.9-7.4-13.5c-0.1-0.1-1.5-0.8-2.2-1l-1.3,1.3l-1.3-1.3c0,0,0,0,0,0c-1,0.2-3.3,1.7-4.5,2.9
			c-1-1.2-2.2-2.1-3.6-3c-0.1-0.1-1.6-0.8-2.2-1l-1.3,1.4l-1.3-1.4c0,0,0,0,0,0c-0.9,0.3-1.8,0.8-2.7,1.5c-4.1,2.8-5.9,6.4-7.1,14.2
			c1.6,0.1,3,0.4,4.1,0.6c0.4-2.7,0.9-4.7,1.4-6.3V57c0,0,0,0,0,0c2.3,0.7,3.5,1.4,4.1,1.9l0.1,0.1c0.5,0.4,1.1,0.9,1.7,1.4
			c1.7-3.7,4.8-4.4,5.3-4.6c0,0,0,0,0,0l0.8,0.9l0.8-0.9c0,0,0,0,0,0C56.3,55.9,59.5,56.7,61.1,60.4z M55,55.6c-2,0-3.6-1.6-3.6-3.7
			c0-2,1.6-3.6,3.6-3.7c2,0,3.6,1.6,3.6,3.7C58.6,54,57,55.6,55,55.6z"/>
	</g>
</g>
</svg>
