<?xml version="1.0" encoding="utf-8"?>
<!-- Generator: Adobe Illustrator 19.1.0, SVG Export Plug-In . SVG Version: 6.00 Build 0)  -->
<svg version="1.1" id="Layer_1" xmlns="http://www.w3.org/2000/svg" xmlns:xlink="http://www.w3.org/1999/xlink" x="0px" y="0px"
	 viewBox="0 0 30 30" style="enable-background:new 0 0 30 30;" xml:space="preserve">
<style type="text/css">
	.st0{fill:#ECB11F;}
	.st1{fill:#FFFFFF;}
</style>
<g id="Layer_15">
	<path class="st0" d="M26.5,23.6l-9.8,5.7c-1,0.6-2.3,0.6-3.4,0l-9.8-5.7c-1-0.6-1.7-1.7-1.7-2.9V9.3c0-1.2,0.6-2.3,1.7-2.9l9.8-5.7
		c1-0.6,2.3-0.6,3.4,0l9.8,5.7c1,0.6,1.7,1.7,1.7,2.9v11.3C28.2,21.9,27.5,23,26.5,23.6z"/>
</g>
<g id="Layer_51">
	<g>
		<g>
			<path class="st1" d="M19.2,11.3c2.4,0,4.1-0.9,4.1-2.1S21.6,7,19.2,7s-4.1,1-4.1,2.2S16.9,11.3,19.2,11.3z M19.2,8
				c2,0,3.2,0.7,3.2,1.2s-1.3,1.2-3.2,1.2S16,9.7,16,9.2S17.3,8,19.2,8z"/>
			<path class="st1" d="M23,11.4c-0.2-0.1-0.5,0-0.6,0.3c-0.2,0.5-1.5,1.1-3.2,1.1s-2.9-0.5-3.2-1.1c-0.1-0.2-0.4-0.3-0.6-0.2
				c-0.2,0.1-0.3,0.4-0.2,0.6c0.4,1,2.1,1.6,4,1.6c0.9,0,1.8-0.2,2.6-0.4c0.8-0.3,1.3-0.7,1.5-1.3C23.4,11.7,23.3,11.4,23,11.4z"/>
			<path class="st1" d="M23,13.7c-0.2-0.1-0.5,0-0.6,0.3c-0.2,0.5-1.5,1.1-3.2,1.1S16.3,14.6,16,14c-0.1-0.2-0.4-0.3-0.6-0.2
				c-0.2,0.1-0.3,0.4-0.2,0.6c0.4,1,2.1,1.6,4,1.6c0.9,0,1.8-0.2,2.6-0.4c0.8-0.3,1.3-0.7,1.5-1.3C23.4,14,23.3,13.8,23,13.7z"/>
			<path class="st1" d="M23,16c-0.2-0.1-0.5,0-0.6,0.3c-0.2,0.5-1.5,1.1-3.2,1.1s-2.9-0.5-3.2-1.1c-0.1-0.2-0.4-0.3-0.6-0.2
				c-0.2,0.1-0.3,0.4-0.2,0.6c0.4,1,2.1,1.6,4,1.6c0.9,0,1.8-0.2,2.6-0.4c0.8-0.3,1.3-0.7,1.5-1.3C23.4,16.4,23.3,16.1,23,16z"/>
			<path class="st1" d="M23,18.3c-0.2-0.1-0.5,0-0.6,0.3c-0.2,0.5-1.5,1.1-3.2,1.1s-2.9-0.5-3.2-1.1c-0.1-0.2-0.4-0.3-0.6-0.2
				c-0.2,0.1-0.3,0.4-0.2,0.6c0.4,1,2.1,1.6,4,1.6c0.9,0,1.8-0.2,2.6-0.4c0.8-0.3,1.3-0.7,1.5-1.3C23.4,18.7,23.3,18.4,23,18.3z"/>
			<path class="st1" d="M23,20.7c-0.2-0.1-0.5,0-0.6,0.3c-0.2,0.5-1.4,1-3.2,1c-1.7,0-2.9-0.5-3.2-1.1c-0.1-0.2-0.4-0.3-0.6-0.2
				c-0.2,0.1-0.3,0.4-0.2,0.6c0.4,1,2.1,1.6,4,1.6c0.9,0,1.8-0.2,2.6-0.4c0.8-0.3,1.3-0.7,1.5-1.3C23.4,21,23.3,20.8,23,20.7z"/>
			<path class="st1" d="M14.6,16c-0.2-0.1-0.5,0-0.6,0.3c-0.2,0.5-1.5,1.1-3.2,1.1s-2.9-0.5-3.2-1.1C7.5,16.1,7.2,16,7,16.1
				s-0.3,0.4-0.2,0.6c0.4,1,2.1,1.6,4,1.6c0.9,0,1.8-0.2,2.6-0.4c0.8-0.3,1.3-0.7,1.5-1.3C14.9,16.4,14.8,16.1,14.6,16z"/>
			<path class="st1" d="M14.6,18.3c-0.2-0.1-0.5,0-0.6,0.3c-0.2,0.5-1.5,1.1-3.2,1.1s-2.9-0.5-3.2-1.1c-0.1-0.2-0.4-0.3-0.6-0.2
				c-0.2,0.1-0.3,0.4-0.2,0.6c0.4,1,2.1,1.6,4,1.6c0.9,0,1.8-0.2,2.6-0.4c0.8-0.3,1.3-0.7,1.5-1.3C14.9,18.7,14.8,18.4,14.6,18.3z"
				/>
			<path class="st1" d="M14.6,20.7c-0.2-0.1-0.5,0-0.6,0.3c-0.2,0.5-1.5,1.1-3.2,1.1S7.9,21.6,7.6,21c-0.1-0.2-0.4-0.3-0.6-0.2
				c-0.2,0.1-0.3,0.4-0.2,0.6c0.4,1,2.1,1.6,4,1.6c0.9,0,1.8-0.2,2.6-0.4c0.8-0.3,1.3-0.7,1.5-1.3C14.9,21,14.8,20.8,14.6,20.7z"/>
			<path class="st1" d="M10.8,11.7c-2.4,0-4.1,0.9-4.1,2.1S8.4,16,10.8,16s4.1-0.9,4.1-2.1S13.1,11.7,10.8,11.7z M10.8,15.1
				c-2,0-3.2-0.7-3.2-1.2s1.3-1.2,3.2-1.2s3.2,0.7,3.2,1.2C14,14.3,12.7,15.1,10.8,15.1z"/>
		</g>
	</g>
</g>
</svg>
