<?xml version="1.0" encoding="utf-8"?>
<!-- Generator: Adobe Illustrator 19.1.0, SVG Export Plug-In . SVG Version: 6.00 Build 0)  -->
<svg version="1.1" id="Layer_1" xmlns="http://www.w3.org/2000/svg" xmlns:xlink="http://www.w3.org/1999/xlink" x="0px" y="0px"
	 viewBox="0 0 30 30" style="enable-background:new 0 0 30 30;" xml:space="preserve">
<style type="text/css">
	.st0{fill:#EF4462;}
</style>
<g>
	<path class="st0" d="M15,28.9c-3.2,0-6.5-1.2-9-3.7c-4.9-4.9-4.9-13,0-17.9c0.5-0.5,1.3-0.5,1.8,0s0.5,1.3,0,1.8
		c-4,4-4,10.4,0,14.3c4,4,10.4,4,14.3,0c4-4,4-10.4,0-14.3c-0.5-0.5-0.5-1.3,0-1.8s1.3-0.5,1.8,0c4.9,4.9,4.9,13,0,17.9
		C21.5,27.7,18.2,28.9,15,28.9z"/>
	<path class="st0" d="M16.3,15c0,0.7-0.6,1.3-1.3,1.3l0,0c-0.7,0-1.3-0.6-1.3-1.3V2.3c0-0.7,0.6-1.3,1.3-1.3l0,0
		c0.7,0,1.3,0.6,1.3,1.3V15z"/>
</g>
</svg>
