<?xml version="1.0" encoding="utf-8"?>
<!-- Generator: Adobe Illustrator 19.1.0, SVG Export Plug-In . SVG Version: 6.00 Build 0)  -->
<svg version="1.1" xmlns="http://www.w3.org/2000/svg" xmlns:xlink="http://www.w3.org/1999/xlink" x="0px" y="0px"
	 viewBox="0 0 110 110" style="enable-background:new 0 0 110 110;" xml:space="preserve">
<style type="text/css">
	.st0{fill:#C5415B;}
	.st1{display:none;}
	.st2{display:inline;}
	.st3{fill:#FFFFFF;}
</style>
<g id="Layer_1">
	<circle class="st0" cx="55" cy="55" r="53"/>
</g>
<g id="Layer_3" class="st1">
	<g class="st2">
		<g>
			<path class="st3" d="M46,60.6c-0.3-0.2-2.8-2.1-9.7-2.6c-0.4,0-0.8-0.3-1.1-0.5c-0.4-0.3-0.9-0.6-1.2-1c-0.5-0.6-1.1-1.2-1.6-1.9
				C29,50,25.8,49,25.3,48.8c-0.7-0.3-3.2,0.1-2,1.7c0.1,0,3.8,5.3,4.1,5.7c0.4,0.7,0.9,1.1,1.4,1.6c0.4,0.5,0.9,0.9,1.3,1.4
				c0,0-2.4-1.4-3-2c-0.3-0.3-0.4-0.7-0.6-1c-0.2-0.4-0.5-0.8-0.7-1.1c-0.3-0.5-0.6-0.9-1-1.4c-0.4-0.6-0.9-1.1-1.3-1.7
				c-0.3-0.3-0.6-0.7-0.8-1c-1.1-1.8,0.2-2.9,1.4-3c-0.1-0.2-0.6-5.6-0.7-6.5c-0.3-2.6-0.6-4.6-2.1-5.1c-0.4-0.1-0.7-0.1-0.9,0.2
				c-0.3,0.4-0.5,2.3-0.6,3.5c0,0-0.7,6.4-0.5,9.5c0.1,1.6,5.1,12.7,6.5,14.4c1.4,1.7,12.7,8.2,12.7,8.2c0.4,0.3,2.5,1.9,2.5,4v4.6
				l12.1,0l0-4.2c0-0.8,0.2-1.5,0.3-2.3c0.3-0.9,0.1-2.5-0.1-3.2C51.8,64.7,46.6,61,46,60.6z"/>
			<path class="st3" d="M90.4,40c-0.1-1.2-0.3-3.1-0.6-3.5c-0.3-0.3-0.6-0.4-0.9-0.2c-1.5,0.5-1.8,2.5-2.1,5.1
				C86.6,42.4,86,47.8,86,48c1.2,0.1,2.5,1.2,1.4,3c-0.2,0.4-0.5,0.7-0.8,1c-0.4,0.6-0.9,1.1-1.3,1.7c-0.3,0.4-0.7,0.9-1,1.4
				c-0.3,0.4-0.5,0.7-0.7,1.1c-0.2,0.3-0.3,0.7-0.6,1c-0.6,0.6-3,2-3,2c0.4-0.5,0.9-0.9,1.3-1.4c0.5-0.5,0.9-0.8,1.4-1.6
				c0.2-0.4,4-5.7,4.1-5.7c1.2-1.7-1.3-2.1-2-1.7C84.2,49,81,50,77.6,54.6c-0.5,0.7-1.1,1.2-1.6,1.9c-0.3,0.4-0.8,0.7-1.2,1
				c-0.3,0.2-0.7,0.5-1.1,0.5c-6.9,0.5-9.4,2.3-9.7,2.6c-0.6,0.4-5.8,4.2-7.2,10.5c-0.1,0.6-0.3,2.3-0.1,3.2
				c0.1,0.8,0.2,1.5,0.3,2.3l0,4.2l12.1,0v-4.6c0-2.1,2.1-3.7,2.5-4c0,0,11.3-6.5,12.7-8.2c1.4-1.7,6.5-12.8,6.5-14.4
				C91,46.5,90.4,40,90.4,40z"/>
			<circle class="st3" cx="48.5" cy="34.7" r="5.4"/>
			<circle class="st3" cx="61.5" cy="35.9" r="5.3"/>
			<path class="st3" d="M61.1,60.4c0.6-0.6,1.2-1.1,1.7-1.4l0.1-0.1c0.6-0.5,1.9-1.3,4.5-2l-0.5-3.2v-3.1c0.6,1.4,1.1,3.4,1.5,6
				c1.1-0.3,2.5-0.5,4-0.6c-1.2-7.5-3.1-10.9-7.4-13.5c-0.1-0.1-1.5-0.8-2.2-1l-1.3,1.3l-1.3-1.3c0,0,0,0,0,0
				c-1,0.2-3.3,1.7-4.5,2.9c-1-1.2-2.2-2.1-3.6-3c-0.1-0.1-1.6-0.8-2.2-1l-1.3,1.4l-1.3-1.4c0,0,0,0,0,0c-0.9,0.3-1.8,0.8-2.7,1.5
				c-4.1,2.8-5.9,6.4-7.1,14.2c1.6,0.1,3,0.4,4.1,0.6c0.4-2.7,0.9-4.7,1.4-6.3V57c0,0,0,0,0,0c2.3,0.7,3.5,1.4,4.1,1.9l0.1,0.1
				c0.5,0.4,1.1,0.9,1.7,1.4c1.7-3.7,4.8-4.4,5.3-4.6c0,0,0,0,0,0l0.8,0.9l0.8-0.9c0,0,0,0,0,0C56.3,55.9,59.5,56.7,61.1,60.4z
				 M55,55.6c-2,0-3.6-1.6-3.6-3.7c0-2,1.6-3.6,3.6-3.7c2,0,3.6,1.6,3.6,3.7C58.6,54,57,55.6,55,55.6z"/>
		</g>
	</g>
</g>
<g id="Layer_2" class="st1">
	<g class="st2">
		<path class="st3" d="M74.6,44.4v-2h-1.3c0-4-3.3-7.1-7.3-7.4v0c-0.7,0-1.7-0.9-1.7-2L64,25c-0.1-1.8-1.5-3.2-3.3-3.2h-12
			c-1.8,0-3.4,1.4-3.5,3.2L44.4,33c0,1.1-1,1.9-2.3,1.9v0c-3.3,0.3-6.6,3.5-6.6,7.3v25.3c0,3.8,3.3,6.9,6.6,7.3v0
			c1.3,0,2.3,0.9,2.3,2l0.7,8.1c0.1,1.8,1.8,3.4,3.7,3.4h12c1.8,0,3.4-1.6,3.5-3.4l0.2-8.1c0-1.1,1-2,1.7-2v0c4-0.3,6.6-3.5,6.6-7.3
			V67h0.1c0.4,0,0.6-0.3,0.6-0.7V57c0-0.4-0.2-0.6-0.6-0.6h-0.1v-4.7h2v-2h-1.3v-1.3h1.3v-0.7h-1.3v-1.3h1.3v-0.7h-1.3v-1.3H74.6z
			 M46.5,25.1c0.1-1.1,1.1-2,2.2-2h12c1.1,0,2.1,0.9,2.2,2l0,0.6H46.5L46.5,25.1z M46.4,27.1h16.5l0.2,3.3H46.2L46.4,27.1z M46,33.2
			l0.1-1.4h17.1l0.1,1.3c0,0.8,0.2,1.3,0.7,2H45.4C45.8,34.4,46,33.9,46,33.2z M62.8,84.9c-0.1,1.1-1.1,2-2.2,2h-12
			c-1.1,0-2.1-0.9-2.2-2l0-0.6h16.4L62.8,84.9z M62.9,82.9H46.4l-0.2-3.3h16.9L62.9,82.9z M63.3,76.8l-0.1,1.4H46.1L46,76.9
			c0-0.8-0.2-1.3-0.7-2h18.6C63.5,75.6,63.3,76.1,63.3,76.8z M71.3,67.6c0,3.3-2.7,6-6,6H42.7c-3.3,0-6-2.7-6-6V42.4
			c0-3.3,2.7-6,6-6h22.6c3.3,0,6,2.7,6,6V67.6z"/>
		<path class="st3" d="M69.3,42.4c0-2.2-1.8-4-4-4H42.7c-2.2,0-4,1.8-4,4v25.3c0,2.2,1.8,4,4,4h22.6c2.2,0,4-1.8,4-4V42.4z M58,42.9
			c1.8,0,3.3,1.5,3.3,3.3c0,1.8-1.5,3.3-3.3,3.3c-1.8,0-3.3-1.5-3.3-3.3C54.7,44.4,56.2,42.9,58,42.9z M50,42.9
			c1.8,0,3.3,1.5,3.3,3.3c0,1.8-1.5,3.3-3.3,3.3s-3.3-1.5-3.3-3.3C46.7,44.4,48.2,42.9,50,42.9z M42,54.8c0-1.8,1.5-3.3,3.3-3.3
			c1.8,0,3.3,1.5,3.3,3.3s-1.5,3.3-3.3,3.3C43.5,58.2,42,56.7,42,54.8z M50,66.8c-1.8,0-3.3-1.5-3.3-3.3s1.5-3.3,3.3-3.3
			s3.3,1.5,3.3,3.3S51.9,66.8,50,66.8z M50.7,54.8c0-1.8,1.5-3.3,3.3-3.3s3.3,1.5,3.3,3.3s-1.5,3.3-3.3,3.3S50.7,56.7,50.7,54.8z
			 M58,66.8c-1.8,0-3.3-1.5-3.3-3.3s1.5-3.3,3.3-3.3c1.8,0,3.3,1.5,3.3,3.3S59.8,66.8,58,66.8z M62.6,58.2c-1.8,0-3.3-1.5-3.3-3.3
			s1.5-3.3,3.3-3.3c1.8,0,3.3,1.5,3.3,3.3S64.5,58.2,62.6,58.2z"/>
	</g>
</g>
<g id="Layer_4">
	<g>
		<path class="st3" d="M47.9,76.9C47.9,76.9,47.9,76.9,47.9,76.9c-0.6,0-1.1-0.4-1.3-0.9l-7.2-18.1l-5.7,12.5
			c-0.2,0.5-0.7,0.8-1.3,0.8H21.1c-0.8,0-1.4-0.6-1.4-1.4c0-0.8,0.6-1.4,1.4-1.4h10.4l6.7-14.7c0.2-0.5,0.7-0.8,1.3-0.8
			c0.6,0,1.1,0.4,1.3,0.9l7.4,18.4l5.6-10.1c0.2-0.4,0.7-0.7,1.2-0.7c0.5,0,1,0.3,1.2,0.7l2.4,4l4.9-23.3c0.1-0.7,0.7-1.1,1.4-1.1
			c0,0,0,0,0,0c0.7,0,1.3,0.5,1.4,1.2l4,25.6h15.7c0.8,0,1.4,0.6,1.4,1.4c0,0.8-0.6,1.4-1.4,1.4H69.1c-0.7,0-1.3-0.5-1.4-1.2
			l-3-19.2l-4.1,19.4c-0.1,0.6-0.6,1-1.1,1.1c-0.6,0.1-1.1-0.2-1.4-0.7l-3-5l-5.9,10.6C48.9,76.6,48.5,76.9,47.9,76.9z"/>
		<path class="st3" d="M29.6,36.6c0.8-1.8,2.6-3.5,4.7-3.5c2.9,0,4.9,2.3,5.2,5.1c0,0,0.1,0.7-0.2,1.9c-0.4,1.7-1.4,3.2-2.7,4.3
			l-6.9,5.9c-0.1,0-0.1,0-0.2,0l-6.9-5.9c-1.3-1.1-2.3-2.6-2.7-4.3c-0.3-1.2-0.2-1.9-0.2-1.9c0.3-2.8,2.3-5.1,5.2-5.1
			C27,33.1,28.8,34.8,29.6,36.6z"/>
		<path class="st3" d="M87.5,35.9h-5.6c-0.8,0-1.4-0.6-1.4-1.4s0.6-1.4,1.4-1.4h5.6c0.8,0,1.4,0.6,1.4,1.4S88.2,35.9,87.5,35.9z"/>
		<path class="st3" d="M88.9,41.6H77.6c-0.8,0-1.4-0.6-1.4-1.4c0-0.8,0.6-1.4,1.4-1.4h11.3c0.8,0,1.4,0.6,1.4,1.4
			C90.3,41,89.7,41.6,88.9,41.6z"/>
		<path class="st3" d="M87.5,47.2h-5.6c-0.8,0-1.4-0.6-1.4-1.4s0.6-1.4,1.4-1.4h5.6c0.8,0,1.4,0.6,1.4,1.4S88.2,47.2,87.5,47.2z"/>
	</g>
</g>
</svg>
