<?xml version="1.0" encoding="utf-8"?>
<!-- Generator: Adobe Illustrator 19.1.0, SVG Export Plug-In . SVG Version: 6.00 Build 0)  -->
<svg version="1.1" id="Layer_1" xmlns="http://www.w3.org/2000/svg" xmlns:xlink="http://www.w3.org/1999/xlink" x="0px" y="0px"
	 viewBox="0 0 30 30" style="enable-background:new 0 0 30 30;" xml:space="preserve">
<style type="text/css">
	.st0{fill:#FFFFFF;}
</style>
<g id="Layer_45">
	<g>
		<g id="Guides_For_Artboard_1_">
		</g>
		<g id="Artwork_1_">
		</g>
		<g id="Layer_2_1_">
			<g>
				<path class="st0" d="M20.9,20.7c-0.1,0.2-0.3,0.4-0.6,0.4c-0.3,0-0.5-0.2-0.5-0.5l-1.1-7.9l-1.4,6c-0.1,0.2-0.3,0.4-0.5,0.4l0,0
					c-0.3,0-0.5-0.2-0.5-0.4l-1-4.2l-1.9,6.8c-0.1,0.2-0.3,0.4-0.5,0.4c0,0,0,0-0.1,0c-0.3,0-0.5-0.2-0.5-0.5l-0.9-10.8l-2.2,6.3
					C9,17,8.8,17.1,8.6,17.1H4.1c1.8,2.4,4.3,4.7,6.5,6.8c0,0,1.9,1.9,2.4,2.4c0.4,0.4,1.3,1.1,2.3,1.1s1.9-0.7,2.3-1.1
					c0.6-0.5,2.4-2.4,2.4-2.4c2.2-2.1,4.7-4.5,6.6-6.9H22L20.9,20.7z"/>
				<path class="st0" d="M3.3,16L3.3,16h4.9l3-8.3c0.1-0.2,0.3-0.4,0.5-0.4h0.1c0.3,0,0.5,0.2,0.5,0.5l0.9,10.3l1.6-5.9
					c0.1-0.2,0.3-0.4,0.5-0.4l0,0l0,0c0.3,0,0.5,0.2,0.5,0.4l0.9,4l1.6-6.6c0.1-0.2,0.3-0.4,0.5-0.4l0,0c0.3,0,0.5,0.2,0.5,0.5
					l1.2,8.3l0.5-1.7c0.1-0.2,0.3-0.4,0.5-0.4l0,0h5.9c0.9-1.3,1.5-2.6,1.7-3.8c0.4-2.8,0-5-1.3-6.8c-1.3-1.7-3.3-2.7-6.2-3
					c-0.3,0-0.5,0-0.8,0c-2,0-4,0.7-5.6,2c-1.5-1.3-3.6-2-5.6-2c-0.2,0-0.5,0-0.8,0C6,2.6,4,3.6,2.6,5.3c-1.3,1.7-1.8,4-1.3,6.8
					C1.7,13.4,2.4,14.7,3.3,16z"/>
			</g>
		</g>
	</g>
</g>
</svg>
