<?xml version="1.0" encoding="utf-8"?>
<!-- Generator: Adobe Illustrator 19.1.0, SVG Export Plug-In . SVG Version: 6.00 Build 0)  -->
<svg version="1.1" id="Layer_1" xmlns="http://www.w3.org/2000/svg" xmlns:xlink="http://www.w3.org/1999/xlink" x="0px" y="0px"
	 viewBox="0 0 30 30" style="enable-background:new 0 0 30 30;" xml:space="preserve">
<style type="text/css">
	.st0{fill:#FFC70B;}
</style>
<path class="st0" d="M15,1C7.3,1,1,7.3,1,15s6.3,14,14,14s14-6.3,14-14S22.7,1,15,1z M19,9.8c1.5,0,2.2,2,2.2,4.3
	c-0.3,0.3-0.6-1.7-2.2-1.7s-1.8,2-2.2,1.7C16.8,11.8,17.5,9.8,19,9.8z M11.3,9.8c1.5,0,2.2,2,2.2,4.3c-0.3,0.3-0.6-1.7-2.2-1.7
	s-1.8,2-2.2,1.7C9.2,11.8,9.8,9.8,11.3,9.8z M15.2,21.5c-4.7,0-6.7-3.1-6.7-4.1c0-0.3,3.1,2.5,6.7,2.5s6.3-2.8,6.3-2.5
	C21.5,18.5,19.9,21.5,15.2,21.5z"/>
</svg>
