<?xml version="1.0" encoding="utf-8"?>
<!-- Generator: Adobe Illustrator 19.1.0, SVG Export Plug-In . SVG Version: 6.00 Build 0)  -->
<svg version="1.1" id="Layer_1" xmlns="http://www.w3.org/2000/svg" xmlns:xlink="http://www.w3.org/1999/xlink" x="0px" y="0px"
	 viewBox="0 0 30 30" style="enable-background:new 0 0 30 30;" xml:space="preserve">
<style type="text/css">
	.st0{fill:#FFFFFF;}
</style>
<g>
	<g>
		<circle class="st0" cx="15" cy="3" r="2.4"/>
		<path class="st0" d="M15.8,6.6c-0.6-0.1-1.3-0.1-1.9,0c-4,0.5-5.3,5.1-5,8.7c0.2,1.5,2.6,1.6,2.4,0c-0.1-1.3-0.1-3.2,0.6-4.6
			c0,1.7,0,3.4,0,5.1c0,0.1,0,0.1,0,0.2c0,0,0,0.1,0,0.1c0,4,0,8-0.2,12c-0.1,1.8,2.7,1.8,2.8,0c0.1-3.1,0.2-6.3,0.2-9.4
			c0.1,0,0.3,0,0.4,0c0,3.1,0,6.3,0.2,9.4c0.1,1.8,2.8,1.8,2.8,0c-0.2-4-0.2-8-0.2-12c0-0.1,0-0.2,0-0.3c0-1.7-0.1-3.5,0-5.2
			c0.8,1.4,0.9,3.5,0.8,4.9c-0.2,1.5,2.3,1.5,2.4,0C21.4,11.7,20,6.9,15.8,6.6z"/>
	</g>
</g>
</svg>
