<?xml version="1.0" encoding="utf-8"?>
<!-- Generator: Adobe Illustrator 19.1.0, SVG Export Plug-In . SVG Version: 6.00 Build 0)  -->
<svg version="1.1" id="Layer_1" xmlns="http://www.w3.org/2000/svg" xmlns:xlink="http://www.w3.org/1999/xlink" x="0px" y="0px"
	 viewBox="6 -6 30 30" style="enable-background:new 6 -6 30 30;" xml:space="preserve">
<style type="text/css">
	.st0{fill:#FFFFFF;}
</style>
<g id="Layer_31">
	<g id="Page-1">
		<g id="Core" transform="translate(-128.000000, -86.000000)">
			<g id="check-circle-outline" transform="translate(128.000000, 86.000000)">
				<path id="Shape" class="st0" d="M15.1,6.3l-2,2l6.5,6.5L33.9,0.4l-2-2L19.6,10.7L15.1,6.3L15.1,6.3z M32.5,9
					c0,6.3-5.2,11.5-11.5,11.5S9.5,15.3,9.5,9S14.7-2.5,21-2.5c1.1,0,2.2,0.1,3.2,0.4l2.3-2.3c-1.7-0.6-3.6-1-5.5-1
					C13.1-5.4,6.6,1.1,6.6,9S13.1,23.4,21,23.4S35.4,16.9,35.4,9H32.5L32.5,9z"/>
			</g>
		</g>
	</g>
</g>
</svg>
