<?xml version="1.0" encoding="utf-8"?>
<!-- Generator: Adobe Illustrator 19.1.0, SVG Export Plug-In . SVG Version: 6.00 Build 0)  -->
<svg version="1.1" xmlns="http://www.w3.org/2000/svg" xmlns:xlink="http://www.w3.org/1999/xlink" x="0px" y="0px"
	 viewBox="0 0 30 30" style="enable-background:new 0 0 30 30;" xml:space="preserve">
<style type="text/css">
	.st0{display:none;}
	.st1{display:inline;}
	.st2{fill:#EF3E62;}
</style>
<g id="Layer_1" class="st0">
	<g class="st1">
		<path class="st2" d="M23.5,29c-1.2,0-2.6-0.3-4.1-0.9C16,26.8,12.3,24.3,9,21c-3.3-3.3-5.8-7-7.1-10.4C0.7,7.5,0.7,5,1.9,3.8
			C2,3.7,2.2,3.5,2.4,3.3C3.4,2.2,4.6,0.9,6.2,1c1.1,0,2.1,0.7,3.2,2.1c3.2,4,1.8,5.4,0.1,7l-0.3,0.3c-0.3,0.3-0.8,1.5,4,6.3
			c1.6,1.6,2.9,2.7,4,3.4c0.7,0.4,1.9,1.1,2.4,0.6l0.3-0.3c1.6-1.7,3.1-3.1,7,0.1c1.3,1.1,2,2.1,2.1,3.2c0.1,1.6-1.2,2.8-2.3,3.8
			c-0.2,0.2-0.4,0.3-0.5,0.5C25.6,28.7,24.7,29,23.5,29z M6.1,1.9C5,1.9,4,3,3.1,4C2.9,4.1,2.7,4.3,2.5,4.5
			c-0.9,0.9-0.8,3.1,0.2,5.8c1.2,3.3,3.7,6.8,6.9,10.1c3.2,3.2,6.8,5.7,10.1,6.9c2.6,1,4.9,1.1,5.8,0.2c0.2-0.2,0.4-0.3,0.5-0.5
			c1-0.9,2.1-2,2-3.1c0-0.8-0.6-1.6-1.7-2.5c-3.3-2.7-4.2-1.7-5.8-0.2l-0.3,0.3c-0.7,0.7-1.9,0.6-3.5-0.5c-1.1-0.7-2.5-1.9-4.1-3.5
			c-4-4-5.3-6.4-4-7.7l0.3-0.3c1.6-1.5,2.5-2.5-0.2-5.8C7.8,2.6,7,2,6.1,1.9C6.2,1.9,6.1,1.9,6.1,1.9z"/>
	</g>
</g>
<g id="Layer_2">
	<g>
		<g>
			<path class="st2" d="M23.5,20.3c-0.1,0-0.2,0-0.3-0.1l-5.1-4.8c-0.2-0.2-0.2-0.4,0-0.6c0.2-0.2,0.4-0.2,0.6,0l5.1,4.8
				c0.2,0.2,0.2,0.4,0,0.6C23.8,20.3,23.7,20.3,23.5,20.3z"/>
			<path class="st2" d="M6.5,20.3c-0.1,0-0.2,0-0.3-0.1C6,20,6,19.7,6.2,19.6l5.1-4.8c0.2-0.2,0.5-0.2,0.6,0c0.2,0.2,0.2,0.5,0,0.6
				l-5.1,4.8C6.7,20.3,6.6,20.3,6.5,20.3z"/>
		</g>
		<path class="st2" d="M26.6,24.8H3.4c-1.2,0-2.2-1-2.2-2.2V7.4c0-1.2,1-2.2,2.2-2.2h23.1c1.2,0,2.2,1,2.2,2.2v15.2
			C28.8,23.8,27.8,24.8,26.6,24.8z M3.4,6.1c-0.7,0-1.3,0.6-1.3,1.3v15.2c0,0.7,0.6,1.3,1.3,1.3h23.1c0.7,0,1.3-0.6,1.3-1.3V7.4
			c0-0.7-0.6-1.3-1.3-1.3H3.4z"/>
		<path class="st2" d="M15,17.2c-0.6,0-1.2-0.2-1.6-0.6L1.9,6.7c-0.2-0.2-0.2-0.4,0-0.6c0.2-0.2,0.4-0.2,0.6,0L14,16
			c0.6,0.5,1.5,0.5,2.1,0L27.5,6c0.2-0.2,0.5-0.1,0.6,0c0.2,0.2,0.1,0.5,0,0.6l-11.4,9.9C16.2,17,15.6,17.2,15,17.2z"/>
	</g>
</g>
</svg>
