<?xml version="1.0" encoding="utf-8"?>
<!-- Generator: Adobe Illustrator 19.1.0, SVG Export Plug-In . SVG Version: 6.00 Build 0)  -->
<svg version="1.1" id="Layer_1" xmlns="http://www.w3.org/2000/svg" xmlns:xlink="http://www.w3.org/1999/xlink" x="0px" y="0px"
	 viewBox="0 0 30 30" style="enable-background:new 0 0 30 30;" xml:space="preserve">
<style type="text/css">
	.st0{fill:#00A3FF;}
</style>
<g id="Layer_41">
	<g>
		<g>
			<g>
				<path class="st0" d="M12.7,16.6c0.4-1,1-2.8,0.1-6.1s-2.4-4.6-4.3-4.6c0,0-3.3-0.2-3.6,5.1c-0.2,5.8,1.8,7.2,2.4,10.6l4.9-1.4
					C12.1,18.7,12.5,17.4,12.7,16.6z"/>
			</g>
			<g>
				<path class="st0" d="M12.8,22l-5.2,1.5c0.3,3.4,1.9,6.2,4.8,5.4C15.4,28.1,14,24,12.8,22L12.8,22z"/>
			</g>
		</g>
		<g>
			<g>
				<path class="st0" d="M17.3,11.7c-0.4-1-1-2.8-0.1-6.1S19.6,1,21.5,1c0,0,3.3-0.2,3.6,5.1c0.2,5.8-1.8,7.2-2.4,10.6l-4.9-1.4
					C17.9,13.8,17.5,12.5,17.3,11.7z"/>
			</g>
			<g>
				<path class="st0" d="M17.2,17.1l5.2,1.5c-0.3,3.4-1.9,6.2-4.8,5.4C14.6,23.2,16,19.1,17.2,17.1L17.2,17.1z"/>
			</g>
		</g>
	</g>
</g>
</svg>
