<?xml version="1.0" encoding="utf-8"?>
<!-- Generator: Adobe Illustrator 19.1.0, SVG Export Plug-In . SVG Version: 6.00 Build 0)  -->
<svg version="1.1" xmlns="http://www.w3.org/2000/svg" xmlns:xlink="http://www.w3.org/1999/xlink" x="0px" y="0px"
	 viewBox="0 0 30 30" style="enable-background:new 0 0 30 30;" xml:space="preserve">
<style type="text/css">
	.st0{display:none;}
	.st1{display:inline;}
	.st2{fill:#EF3E62;}
	.st3{fill:none;stroke:#EF3F62;stroke-miterlimit:10;}
	.st4{fill:#EF4062;}
	.st5{fill:none;stroke:#EF4162;stroke-width:0.75;stroke-miterlimit:10;}
	.st6{display:inline;fill:#EF4162;}
	.st7{fill:#EF4162;}
	.st8{fill:#959595;}
</style>
<g id="Layer_1" class="st0">
	<g class="st1">
		<path class="st2" d="M23.5,29c-1.2,0-2.6-0.3-4.1-0.9C16,26.8,12.3,24.3,9,21c-3.3-3.3-5.8-7-7.1-10.4C0.7,7.5,0.7,5,1.9,3.8
			C2,3.7,2.2,3.5,2.4,3.3C3.4,2.2,4.6,0.9,6.2,1c1.1,0,2.1,0.7,3.2,2.1c3.2,4,1.8,5.4,0.1,7l-0.3,0.3c-0.3,0.3-0.8,1.5,4,6.3
			c1.6,1.6,2.9,2.7,4,3.4c0.7,0.4,1.9,1.1,2.4,0.6l0.3-0.3c1.6-1.7,3.1-3.1,7,0.1c1.3,1.1,2,2.1,2.1,3.2c0.1,1.6-1.2,2.8-2.3,3.8
			c-0.2,0.2-0.4,0.3-0.5,0.5C25.6,28.7,24.7,29,23.5,29z M6.1,1.9C5,1.9,4,3,3.1,4C2.9,4.1,2.7,4.3,2.5,4.5
			c-0.9,0.9-0.8,3.1,0.2,5.8c1.2,3.3,3.7,6.8,6.9,10.1c3.2,3.2,6.8,5.7,10.1,6.9c2.6,1,4.9,1.1,5.8,0.2c0.2-0.2,0.4-0.3,0.5-0.5
			c1-0.9,2.1-2,2-3.1c0-0.8-0.6-1.6-1.7-2.5c-3.3-2.7-4.2-1.7-5.8-0.2l-0.3,0.3c-0.7,0.7-1.9,0.6-3.5-0.5c-1.1-0.7-2.5-1.9-4.1-3.5
			c-4-4-5.3-6.4-4-7.7l0.3-0.3c1.6-1.5,2.5-2.5-0.2-5.8C7.8,2.6,7,2,6.1,1.9C6.2,1.9,6.1,1.9,6.1,1.9z"/>
	</g>
</g>
<g id="Layer_2" class="st0">
	<g class="st1">
		<g>
			<path class="st2" d="M23.5,20.3c-0.1,0-0.2,0-0.3-0.1l-5.1-4.8c-0.2-0.2-0.2-0.4,0-0.6c0.2-0.2,0.4-0.2,0.6,0l5.1,4.8
				c0.2,0.2,0.2,0.4,0,0.6C23.8,20.3,23.7,20.3,23.5,20.3z"/>
			<path class="st2" d="M6.5,20.3c-0.1,0-0.2,0-0.3-0.1C6,20,6,19.7,6.2,19.6l5.1-4.8c0.2-0.2,0.5-0.2,0.6,0c0.2,0.2,0.2,0.5,0,0.6
				l-5.1,4.8C6.7,20.3,6.6,20.3,6.5,20.3z"/>
		</g>
		<path class="st2" d="M26.6,24.8H3.4c-1.2,0-2.2-1-2.2-2.2V7.4c0-1.2,1-2.2,2.2-2.2h23.1c1.2,0,2.2,1,2.2,2.2v15.2
			C28.8,23.8,27.8,24.8,26.6,24.8z M3.4,6.1c-0.7,0-1.3,0.6-1.3,1.3v15.2c0,0.7,0.6,1.3,1.3,1.3h23.1c0.7,0,1.3-0.6,1.3-1.3V7.4
			c0-0.7-0.6-1.3-1.3-1.3H3.4z"/>
		<path class="st2" d="M15,17.2c-0.6,0-1.2-0.2-1.6-0.6L1.9,6.7c-0.2-0.2-0.2-0.4,0-0.6c0.2-0.2,0.4-0.2,0.6,0L14,16
			c0.6,0.5,1.5,0.5,2.1,0L27.5,6c0.2-0.2,0.5-0.1,0.6,0c0.2,0.2,0.1,0.5,0,0.6l-11.4,9.9C16.2,17,15.6,17.2,15,17.2z"/>
	</g>
</g>
<g id="Layer_3" class="st0">
	<g id="XMLID_91_" class="st1">
		<g id="XMLID_92_">
			<path id="XMLID_93_" class="st3" d="M27.3,6.9c-0.3-0.2-0.7-0.3-1.1-0.2C25.5,6.9,24.8,7,24,7c-2.1,0-4.1-0.6-5.7-1.7
				c-1.3-0.9-2.1-2.1-2.1-3.2c0-0.7-0.6-1.3-1.3-1.3c-0.7,0-1.3,0.6-1.3,1.3c0,1.1-0.8,2.3-2.1,3.2C10.1,6.4,8,7,6,7
				C5.2,7,4.5,6.9,3.8,6.7C3.4,6.6,3,6.6,2.7,6.9c-0.3,0.2-0.5,0.6-0.5,1c0,6.9,3,12.3,4.8,14.9c1.3,1.8,2.7,3.4,4.1,4.5
				c1,0.8,2.6,1.9,4,1.9s2.9-1,4-1.9c1.4-1.2,2.8-2.7,4.1-4.5c1.8-2.6,4.8-8,4.8-14.9C27.9,7.5,27.7,7.1,27.3,6.9z M20.9,21.3
				c-2.6,3.7-5.1,5.3-5.9,5.3c-0.8,0-3.3-1.6-5.9-5.3c-1.5-2.2-3.9-6.4-4.3-11.8c0.4,0,0.8,0.1,1.2,0.1c2.6,0,5.2-0.8,7.1-2.1
				c0.8-0.5,1.4-1.1,1.9-1.8c0.5,0.7,1.1,1.3,1.9,1.8c2,1.4,4.5,2.1,7.1,2.1c0.4,0,0.8,0,1.2-0.1C24.8,14.9,22.4,19.2,20.9,21.3z"/>
		</g>
		<g id="XMLID_104_">
			<circle id="XMLID_105_" class="st3" cx="15" cy="12.1" r="3.1"/>
		</g>
		<g id="XMLID_106_">
			<path id="XMLID_107_" class="st3" d="M15,15.3c-2.7,0-4.9,2.2-4.9,4.9h9.8C19.9,17.5,17.7,15.3,15,15.3z"/>
		</g>
	</g>
</g>
<g id="Layer_4" class="st0">
	<g class="st1">
		<g>
			<path class="st4" d="M21.9,9c3.9,0,6.8-1.5,6.8-3.5s-2.9-3.5-6.8-3.5s-6.8,1.5-6.8,3.5C15.1,7.4,18.1,9,21.9,9z M21.9,3.4
				c3.2,0,5.3,1.2,5.3,2s-2.1,2-5.3,2s-5.3-1.2-5.3-2S18.7,3.4,21.9,3.4z"/>
			<path class="st4" d="M28.2,9c-0.4-0.1-0.8,0.1-1,0.4c-0.3,0.9-2.4,1.8-5.3,1.8c-2.8,0-4.8-0.9-5.2-1.7c-0.2-0.4-0.6-0.5-1-0.4
				s-0.5,0.6-0.4,1c0.7,1.6,3.4,2.6,6.6,2.6c1.5,0,3-0.2,4.2-0.7c1.3-0.5,2.2-1.2,2.5-2.1C28.7,9.6,28.5,9.2,28.2,9z"/>
			<path class="st4" d="M28.2,12.8c-0.4-0.1-0.8,0.1-1,0.4c-0.3,0.9-2.4,1.8-5.3,1.8c-2.8,0-4.8-0.9-5.2-1.7c-0.2-0.4-0.6-0.5-1-0.4
				c-0.4,0.2-0.5,0.6-0.4,1c0.7,1.6,3.4,2.6,6.6,2.6c1.5,0,3-0.2,4.2-0.7c1.3-0.5,2.2-1.2,2.5-2.1C28.7,13.4,28.5,13,28.2,12.8z"/>
			<path class="st4" d="M28.2,16.7c-0.4-0.1-0.8,0.1-1,0.4c-0.3,0.9-2.4,1.8-5.3,1.8c-2.8,0-4.8-0.9-5.2-1.7c-0.2-0.4-0.6-0.5-1-0.4
				c-0.4,0.2-0.5,0.6-0.4,1c0.7,1.6,3.4,2.6,6.6,2.6c1.5,0,3-0.2,4.2-0.7c1.3-0.5,2.2-1.2,2.5-2.1C28.7,17.2,28.5,16.8,28.2,16.7z"
				/>
			<path class="st4" d="M28.2,20.5c-0.4-0.1-0.8,0.1-1,0.4c-0.3,0.9-2.4,1.8-5.3,1.8c-2.8,0-4.8-0.9-5.2-1.7c-0.2-0.4-0.6-0.5-1-0.4
				c-0.4,0.2-0.5,0.6-0.4,1c0.7,1.6,3.4,2.6,6.6,2.6c1.5,0,3-0.2,4.2-0.7c1.3-0.5,2.2-1.2,2.5-2.1C28.7,21.1,28.5,20.6,28.2,20.5z"
				/>
			<path class="st4" d="M28.2,24.3c-0.4-0.1-0.8,0.1-1,0.4c-0.3,0.9-2.4,1.8-5.3,1.8c-2.8,0-4.8-0.9-5.2-1.7c-0.2-0.4-0.6-0.5-1-0.4
				c-0.4,0.2-0.5,0.6-0.4,1c0.7,1.6,3.4,2.6,6.6,2.6c1.5,0,3-0.2,4.2-0.7c1.3-0.5,2.2-1.2,2.5-2.1C28.7,24.9,28.5,24.5,28.2,24.3z"
				/>
			<path class="st4" d="M14.3,16.7c-0.4-0.1-0.8,0.1-1,0.4c-0.3,0.9-2.4,1.8-5.3,1.8c-2.8,0-4.8-0.9-5.2-1.7c-0.2-0.4-0.6-0.5-1-0.4
				c-0.4,0.2-0.5,0.6-0.4,1c0.7,1.6,3.4,2.6,6.6,2.6c1.5,0,3-0.2,4.2-0.7c1.3-0.5,2.2-1.2,2.5-2.1C14.9,17.2,14.7,16.8,14.3,16.7z"
				/>
			<path class="st4" d="M14.3,20.5c-0.4-0.1-0.8,0.1-1,0.4c-0.3,0.9-2.4,1.8-5.3,1.8c-2.8,0-4.8-0.9-5.2-1.7c-0.2-0.4-0.6-0.5-1-0.4
				c-0.4,0.2-0.5,0.6-0.4,1c0.7,1.6,3.4,2.6,6.6,2.6c1.5,0,3-0.2,4.2-0.7c1.3-0.5,2.2-1.2,2.5-2.1C14.9,21.1,14.7,20.6,14.3,20.5z"
				/>
			<path class="st4" d="M14.3,24.3c-0.4-0.1-0.8,0.1-1,0.4c-0.3,0.9-2.4,1.8-5.3,1.8c-2.8,0-4.8-0.9-5.2-1.7c-0.2-0.4-0.6-0.5-1-0.4
				c-0.4,0.2-0.5,0.6-0.4,1c0.7,1.6,3.4,2.6,6.6,2.6c1.5,0,3-0.2,4.2-0.7c1.3-0.5,2.2-1.2,2.5-2.1C14.9,24.9,14.7,24.5,14.3,24.3z"
				/>
			<path class="st4" d="M8.1,9.6c-3.9,0-6.8,1.5-6.8,3.5s2.9,3.5,6.8,3.5s6.8-1.5,6.8-3.5S11.9,9.6,8.1,9.6z M8.1,15.1
				c-3.2,0-5.3-1.2-5.3-2c0-0.8,2.1-2,5.3-2s5.3,1.2,5.3,2C13.4,13.9,11.3,15.1,8.1,15.1z"/>
		</g>
	</g>
</g>
<g id="Layer_5" class="st0">
	<g class="st1">
		<path class="st5" d="M25.8,4.5h-0.9V4c0-0.7-0.6-1.3-1.3-1.3S22.2,3.2,22.2,4v0.5H7.8V4c0-0.7-0.6-1.3-1.3-1.3S5.1,3.2,5.1,4v0.5
			H4.2C3,4.5,2,5.5,2,6.7v18.4c0,1.2,1,2.2,2.2,2.2h21.6c1.2,0,2.2-1,2.2-2.2V6.7C28,5.5,27,4.5,25.8,4.5z M23.1,4
			c0-0.3,0.2-0.5,0.5-0.5C23.8,3.5,24,3.7,24,4v0.9c0,0,0,0,0,0s0,0,0,0v0.9c0,0.3-0.2,0.5-0.5,0.5c-0.3,0-0.5-0.2-0.5-0.5V4z
			 M6.5,3.5c0.3,0,0.5,0.2,0.5,0.5v1.8c0,0.3-0.2,0.5-0.5,0.5C6.2,6.3,6,6,6,5.8V4.9c0,0,0,0,0,0s0,0,0,0V4C6,3.7,6.2,3.5,6.5,3.5z
			 M25.8,26.5H4.2c-0.8,0-1.4-0.6-1.4-1.4V8.9H6c0.2,0,0.4-0.2,0.4-0.4S6.2,8.1,6,8.1H2.8V6.7c0-0.8,0.6-1.4,1.4-1.4h0.9v0.5
			c0,0.7,0.6,1.3,1.3,1.3s1.3-0.6,1.3-1.3V5.3h14.5v0.5c0,0.7,0.6,1.3,1.3,1.3s1.3-0.6,1.3-1.3V5.3h0.9c0.8,0,1.4,0.6,1.4,1.4v1.4
			h-2.3c-0.2,0-0.4,0.2-0.4,0.4s0.2,0.4,0.4,0.4h2.3v16.2C27.2,25.9,26.6,26.5,25.8,26.5z"/>
		<path class="st5" d="M23.1,8.1h-0.9c-0.2,0-0.4,0.2-0.4,0.4s0.2,0.4,0.4,0.4h0.9c0.2,0,0.4-0.2,0.4-0.4S23.3,8.1,23.1,8.1z"/>
		<path class="st5" d="M20.8,8.5c0-0.2-0.2-0.4-0.4-0.4H7.8c-0.2,0-0.4,0.2-0.4,0.4s0.2,0.4,0.4,0.4h12.6
			C20.6,8.9,20.8,8.7,20.8,8.5z"/>
		<path class="st5" d="M20.6,15.2h-3.2c-0.1,0-0.3-0.1-0.3-0.2l-1-3v0c-0.2-0.5-0.6-0.8-1.1-0.8s-0.9,0.3-1.1,0.8l-1,3
			c0,0.1-0.2,0.2-0.3,0.2H9.4c-0.5,0-0.9,0.3-1.1,0.8c-0.2,0.5,0,1,0.4,1.3l2.6,1.9c0.1,0.1,0.2,0.2,0.1,0.4l-1,3
			c-0.2,0.5,0,1,0.4,1.3c0.4,0.3,1,0.3,1.4,0l2.6-1.9c0.1-0.1,0.3-0.1,0.4,0l2.6,1.9c0.2,0.2,0.4,0.2,0.7,0.2s0.5-0.1,0.7-0.2
			c0.4-0.3,0.6-0.8,0.4-1.3l-1-3c0-0.1,0-0.3,0.1-0.4l2.6-1.9c0.4-0.3,0.6-0.8,0.4-1.3C21.5,15.6,21.1,15.2,20.6,15.2L20.6,15.2z
			 M20.7,16.7l-2.6,1.9c-0.4,0.3-0.6,0.8-0.4,1.3l1,3c0.1,0.2-0.1,0.3-0.1,0.4c0,0-0.2,0.1-0.4,0l-2.6-1.9c-0.2-0.1-0.4-0.2-0.7-0.2
			s-0.5,0.1-0.7,0.2l-2.6,1.9c-0.2,0.1-0.3,0-0.4,0c0,0-0.2-0.2-0.1-0.4l1-3c0.2-0.5,0-1-0.4-1.3l-2.6-1.9c-0.2-0.1-0.1-0.3-0.1-0.4
			c0-0.1,0.1-0.2,0.3-0.2h3.2c0.5,0,1-0.3,1.1-0.8l1-3c0.1-0.2,0.3-0.2,0.3-0.2c0.1,0,0.2,0,0.3,0.2l1,3c0.2,0.5,0.6,0.8,1.1,0.8
			h3.2c0.2,0,0.3,0.2,0.3,0.2C20.9,16.4,20.9,16.5,20.7,16.7z"/>
		<path class="st5" d="M17,17.1c-0.7,0.5-1.1,1.3-1.1,2.1c0,0.4,0,0.7,0.1,1c0.1,0.2,0.2,0.3,0.4,0.3c0,0,0.1,0,0.1,0
			c0.2-0.1,0.4-0.3,0.3-0.5c-0.1-0.2-0.1-0.5-0.1-0.7c0-0.6,0.3-1.1,0.8-1.5c0.2-0.1,0.2-0.4,0.1-0.6C17.5,17,17.2,17,17,17.1z"/>
		<path class="st5" d="M15.4,15.6c-0.1-0.2-0.3-0.3-0.5-0.3c-0.2,0.1-0.3,0.3-0.3,0.5c0.1,0.3,0.3,0.7,0.5,0.9
			c0.1,0.1,0.2,0.1,0.3,0.1c0.1,0,0.2,0,0.3-0.1c0.2-0.2,0.2-0.4,0-0.6C15.6,16.1,15.5,15.9,15.4,15.6L15.4,15.6z"/>
	</g>
</g>
<g id="Layer_6" class="st0">
	<path class="st6" d="M26.9,10.1l-3.3-3.3h-8.4V6.2c1.2-0.3,2.2-1.4,2.2-2.7c0-1.5-1.2-2.7-2.7-2.7S12,2.1,12,3.6
		c0,1.3,0.9,2.4,2.2,2.7v0.6H9.9C9,6.8,8.2,7.6,8.2,8.5v1.6H6.3l-3.3,3.3l3.3,3.3h7.9v7.1h-2.7v2.2H9.8v3.3h9.8v-3.3H18v-2.2h-2.7
		v-7.1h4.8c0.9,0,1.7-0.8,1.7-1.7v-1.6h1.9L26.9,10.1z M13.1,3.6c0-0.9,0.7-1.6,1.6-1.6s1.6,0.7,1.6,1.6s-0.7,1.6-1.6,1.6
		S13.1,4.5,13.1,3.6z M18.5,27v1.1h-7.6V27h0.5H18H18.5z M16.9,25.9h-4.4v-1.1h4.4V25.9z M20.7,14.9c0,0.3-0.3,0.6-0.6,0.6H6.8
		l-2.2-2.2l2.2-2.2h1.4h11.9c0.3,0,0.6,0.3,0.6,0.6v1.6V14.9z M21.8,12.3v-0.5c0-0.9-0.8-1.7-1.7-1.7H9.3V8.5c0-0.3,0.3-0.6,0.6-0.6
		h13.3l2.2,2.2l-2.2,2.2H21.8z"/>
</g>
<g id="Layer_7" class="st0">
	<g class="st1">
		<path class="st7" d="M27.3,12.7h-5.6c-0.3,0-0.5,0.2-0.5,0.5s0.2,0.5,0.5,0.5h4.6l1.5,13.8H2.1l1.7-13.8h4.6
			c0.3,0,0.5-0.2,0.5-0.5s-0.2-0.5-0.5-0.5H3L1,28.5h28L27.3,12.7z"/>
		<path class="st7" d="M14.6,20.8c-0.1,0-0.2,0.1-0.2,0.1c-0.1,0.1-0.2,0.1-0.3,0.2c-0.2,0.2-0.3,0.5-0.1,0.7
			c0.1,0.1,0.3,0.2,0.4,0.2c0.1,0,0.2,0,0.3-0.1c0.1-0.1,0.2-0.1,0.3-0.2c0.2-0.1,0.3-0.2,0.5-0.3c0.2-0.1,0.3-0.4,0.2-0.6
			c0,0,0,0,0,0c0.9-1,4-4.6,5.3-10.7c0.3-1.2,0.3-2.4,0.2-3.5c-0.4-3.3-2.5-5.1-6-5.1c-3.5,0-5.6,1.8-6,5.1C9,7.7,9,8.9,9.3,10.1
			C10.6,16.2,13.6,19.8,14.6,20.8z M10.1,6.7c0.4-2.8,2-4.2,5-4.2c3,0,4.6,1.4,5,4.2c0.1,1,0.1,2.1-0.2,3.2c-1.2,5.5-3.9,9-4.8,10
			c-0.9-1.1-3.7-4.5-4.8-10C10,8.8,10,7.7,10.1,6.7z"/>
		<path class="st7" d="M15.1,11.1c2.1,0,3.7-1.7,3.7-3.7s-1.7-3.7-3.7-3.7s-3.7,1.7-3.7,3.7S13.1,11.1,15.1,11.1z M15.1,4.7
			c1.5,0,2.7,1.2,2.7,2.7s-1.2,2.7-2.7,2.7s-2.7-1.2-2.7-2.7S13.6,4.7,15.1,4.7z"/>
		<path class="st7" d="M17,19.9c-0.3,0.1-0.5,0.3-0.4,0.6c0.1,0.2,0.3,0.4,0.5,0.4c0,0,0.1,0,0.1,0c0.3-0.1,0.6-0.1,1-0.2
			c0.3,0,0.5-0.3,0.4-0.6c0-0.3-0.3-0.5-0.6-0.4C17.7,19.8,17.3,19.8,17,19.9z"/>
		<path class="st7" d="M19.6,20.1c0,0.3,0.2,0.5,0.5,0.5c0,0,0,0,0,0l1,0c0.3,0,0.5-0.3,0.5-0.5c0-0.3-0.3-0.5-0.5-0.5l-1,0
			C19.8,19.6,19.6,19.8,19.6,20.1z"/>
		<path class="st7" d="M12.4,22.5c-0.3,0.2-0.5,0.4-0.8,0.6c-0.2,0.2-0.3,0.5-0.1,0.7c0.1,0.2,0.3,0.2,0.4,0.2c0.1,0,0.2,0,0.3-0.1
			c0.3-0.2,0.6-0.4,0.9-0.6c0.2-0.2,0.3-0.5,0.1-0.7C13,22.3,12.6,22.3,12.4,22.5z"/>
		<path class="st7" d="M23.8,19.1c-0.2,0.1-0.4,0.2-0.7,0.3c-0.3,0.1-0.5,0.3-0.4,0.6c0,0.2,0.3,0.4,0.5,0.4c0,0,0.1,0,0.1,0
			c0.4-0.1,0.8-0.2,1.1-0.4l0.1,0c0.2-0.2,0.3-0.5,0.1-0.7C24.4,18.9,24,18.9,23.8,19.1L23.8,19.1z"/>
		<path class="st7" d="M5.5,23.1c0.1-0.3-0.1-0.6-0.4-0.6c-0.3-0.1-0.6,0.1-0.6,0.4c-0.1,0.2-0.1,0.5-0.1,0.7c0,0.1,0,0.1,0,0.2
			c0,0.1,0,0.2,0,0.3c0,0.3,0.2,0.5,0.5,0.5c0,0,0,0,0.1,0c0.3,0,0.5-0.3,0.5-0.6c0-0.1,0-0.1,0-0.2c0,0,0-0.1,0-0.1
			C5.4,23.4,5.5,23.3,5.5,23.1z"/>
		<path class="st7" d="M23.8,15.1c-0.4-0.1-0.8,0-1.2,0.1c-0.3,0.1-0.4,0.4-0.4,0.6c0.1,0.2,0.3,0.4,0.5,0.4c0,0,0.1,0,0.1,0
			c0.3-0.1,0.5-0.1,0.8-0.1c0.3,0,0.5-0.2,0.6-0.4C24.2,15.4,24,15.2,23.8,15.1z"/>
		<path class="st7" d="M24.8,17.7c-0.1,0.3,0.1,0.6,0.3,0.6c0.1,0,0.1,0,0.2,0c0.2,0,0.4-0.1,0.5-0.4c0.1-0.2,0.1-0.3,0.1-0.5
			c0,0,0-0.1,0-0.1c0-0.2,0-0.5-0.1-0.7c-0.1-0.3-0.4-0.4-0.7-0.3c-0.3,0.1-0.4,0.4-0.3,0.7c0,0.1,0.1,0.2,0.1,0.4l0,0.1
			C24.8,17.5,24.8,17.6,24.8,17.7z"/>
		<path class="st7" d="M9.9,24c-0.3,0.1-0.6,0.3-0.9,0.4c-0.3,0.1-0.4,0.4-0.3,0.7c0.1,0.2,0.3,0.3,0.5,0.3c0.1,0,0.1,0,0.2,0
			c0.3-0.1,0.6-0.3,1-0.4c0.3-0.1,0.4-0.4,0.2-0.7C10.5,24,10.1,23.9,9.9,24z"/>
		<path class="st7" d="M6.2,21.9c0.1,0,0.2,0,0.2-0.1c0.1-0.1,0.3-0.1,0.5-0.1c0.1,0,0.1,0,0.2,0c0.3,0,0.5-0.2,0.6-0.4
			c0-0.3-0.2-0.5-0.4-0.6c-0.2,0-0.3,0-0.5,0c-0.3,0-0.6,0.1-0.8,0.3c-0.2,0.1-0.3,0.4-0.2,0.7C5.8,21.8,6,21.9,6.2,21.9z"/>
		<path class="st7" d="M6.1,25.9c0.1,0,0.2,0,0.3,0.1c0.1,0,0.3,0,0.4,0c0.2,0,0.3,0,0.5,0c0.3,0,0.5-0.3,0.4-0.6
			c0-0.3-0.3-0.5-0.6-0.4c-0.2,0-0.4,0-0.6,0c-0.1,0-0.1,0-0.2,0c-0.3-0.1-0.6,0.1-0.6,0.4C5.6,25.5,5.8,25.8,6.1,25.9z"/>
	</g>
</g>
<g id="Layer_8" class="st0">
	<g class="st1">
		<path class="st7" d="M22.6,7.5H19c-0.3,0-0.6,0.3-0.6,0.6c0,0.3,0.3,0.6,0.6,0.6h3.6c2.4,0,4.3,1.9,4.3,4.3v6.5h-14V13
			c0-1.8-0.8-3.3-2.1-4.3h3.8c0.3,0,0.6-0.3,0.6-0.6c0-0.3-0.3-0.6-0.6-0.6H7.5H7.4c-3,0-5.4,2.4-5.4,5.4v7.1c0,0.3,0.3,0.6,0.6,0.6
			h9.8h3.4v6.6h-1.6v-4.7c0-0.3-0.3-0.6-0.6-0.6c-0.3,0-0.6,0.3-0.6,0.6v5.3c0,0.3,0.3,0.6,0.6,0.6h2.7c0.3,0,0.6-0.3,0.6-0.6v-7.2
			h10.6c0.3,0,0.6-0.3,0.6-0.6V13C28.1,10,25.6,7.5,22.6,7.5z M3.1,13c0-2.4,1.9-4.3,4.3-4.3h0.1c2.4,0,4.3,1.9,4.3,4.3v6.5h-1.3
			v-6.2c0-0.3-0.3-0.6-0.6-0.6c-0.3,0-0.6,0.3-0.6,0.6v6.2H8v-6.2c0-0.3-0.3-0.6-0.6-0.6S6.9,13,6.9,13.3v6.2H5.6v-6.2
			c0-0.3-0.3-0.6-0.6-0.6c-0.3,0-0.6,0.3-0.6,0.6v6.2H3.1V13z"/>
		<path class="st7" d="M14.1,13.3c0,1.2,1,2.1,2.1,2.1s2.1-1,2.1-2.1c0-1-0.6-1.8-1.5-2V2.7h3.7v1.4h-2.8c-0.3,0-0.6,0.3-0.6,0.6
			s0.3,0.6,0.6,0.6h3.4c0.3,0,0.6-0.3,0.6-0.6V2.2c0-0.3-0.3-0.6-0.6-0.6h-4.8c-0.3,0-0.6,0.3-0.6,0.6v9
			C14.8,11.4,14.1,12.3,14.1,13.3z M17.2,13.3c0,0.6-0.5,1-1,1s-1-0.5-1-1c0-0.6,0.5-1,1-1C16.8,12.3,17.2,12.7,17.2,13.3z"/>
	</g>
</g>
<g id="Layer_9" class="st0">
	<g class="st1">
		<g>
			<path class="st8" d="M11.6,17.1c-0.1-0.1-1.1-0.8-3.7-1c-0.1,0-0.3-0.1-0.4-0.2c-0.2-0.1-0.3-0.2-0.5-0.4
				c-0.2-0.2-0.4-0.4-0.6-0.7c-1.3-1.8-2.5-2.1-2.7-2.2c-0.3-0.1-1.2,0-0.7,0.7c0,0,1.5,2,1.6,2.2c0.2,0.3,0.4,0.4,0.5,0.6
				c0.2,0.2,0.3,0.4,0.5,0.5c0,0-0.9-0.5-1.1-0.8c-0.1-0.1-0.1-0.3-0.2-0.4C4,15.3,3.9,15.2,3.8,15c-0.1-0.2-0.2-0.4-0.4-0.5
				c-0.2-0.2-0.3-0.4-0.5-0.6c-0.1-0.1-0.2-0.3-0.3-0.4c-0.4-0.7,0.1-1.1,0.5-1.2c0-0.1-0.2-2.2-0.3-2.5c-0.1-1-0.2-1.7-0.8-1.9
				c-0.1-0.1-0.3,0-0.4,0.1C1.6,8.1,1.5,8.8,1.5,9.3c0,0-0.3,2.5-0.2,3.6c0,0.6,2,4.9,2.5,5.5c0.6,0.7,4.9,3.1,4.9,3.1
				c0.1,0.1,0.9,0.7,0.9,1.5v1.8l4.7,0l0-1.6c0-0.3,0.1-0.6,0.1-0.9c0.1-0.3,0-1,0-1.2C13.8,18.7,11.8,17.3,11.6,17.1z"/>
			<path class="st8" d="M28.5,9.3c0-0.5-0.1-1.2-0.2-1.3c-0.1-0.1-0.2-0.1-0.4-0.1c-0.6,0.2-0.7,0.9-0.8,1.9c0,0.3-0.3,2.4-0.3,2.5
				c0.5,0.1,1,0.5,0.5,1.2c-0.1,0.1-0.2,0.3-0.3,0.4c-0.2,0.2-0.3,0.4-0.5,0.6c-0.1,0.2-0.3,0.3-0.4,0.5c-0.1,0.1-0.2,0.3-0.3,0.4
				c-0.1,0.1-0.1,0.3-0.2,0.4c-0.2,0.2-1.1,0.8-1.1,0.8c0.2-0.2,0.3-0.3,0.5-0.5c0.2-0.2,0.4-0.3,0.5-0.6c0.1-0.2,1.5-2.2,1.6-2.2
				c0.5-0.6-0.5-0.8-0.7-0.7c-0.2,0.1-1.4,0.4-2.7,2.2c-0.2,0.3-0.4,0.5-0.6,0.7c-0.1,0.1-0.3,0.3-0.5,0.4c-0.1,0.1-0.3,0.2-0.4,0.2
				c-2.6,0.2-3.6,0.9-3.7,1c-0.2,0.2-2.2,1.6-2.7,4c0,0.2-0.1,0.9,0,1.2c0,0.3,0.1,0.6,0.1,0.9l0,1.6l4.7,0v-1.8
				c0-0.8,0.8-1.4,0.9-1.5c0,0,4.3-2.5,4.9-3.1c0.6-0.7,2.5-4.9,2.5-5.5C28.8,11.7,28.5,9.3,28.5,9.3z"/>
			<circle class="st8" cx="12.5" cy="7.2" r="2.1"/>
			<circle class="st8" cx="17.5" cy="7.7" r="2"/>
			<path class="st8" d="M17.4,17.1c0.2-0.2,0.5-0.4,0.7-0.5l0,0c0.2-0.2,0.7-0.5,1.7-0.8l-0.2-1.2v-1.2c0.2,0.6,0.4,1.3,0.6,2.3
				c0.4-0.1,0.9-0.2,1.5-0.2c-0.5-2.9-1.2-4.2-2.8-5.2c0,0-0.6-0.3-0.8-0.4l-0.5,0.5L17,9.8c0,0,0,0,0,0c-0.4,0.1-1.3,0.7-1.7,1.1
				c-0.4-0.5-0.8-0.8-1.4-1.2c0,0-0.6-0.3-0.9-0.4l-0.5,0.5L12,9.4c0,0,0,0,0,0c-0.4,0.1-0.7,0.3-1,0.6c-1.6,1.1-2.2,2.4-2.7,5.4
				c0.6,0.1,1.1,0.1,1.6,0.2c0.2-1,0.3-1.8,0.5-2.4v2.5c0,0,0,0,0,0c0.9,0.3,1.4,0.6,1.6,0.7l0,0c0.2,0.1,0.4,0.3,0.7,0.6
				c0.6-1.4,1.8-1.7,2-1.7c0,0,0,0,0,0l0.3,0.3l0.3-0.3c0,0,0,0,0,0C15.5,15.4,16.7,15.6,17.4,17.1z M15,15.2
				c-0.8,0-1.4-0.6-1.4-1.4c0-0.8,0.6-1.4,1.4-1.4c0.8,0,1.4,0.6,1.4,1.4C16.4,14.6,15.8,15.2,15,15.2z"/>
		</g>
	</g>
</g>
<g id="Layer_10">
	<g>
		<path class="st8" d="M23.3,10.5V9.7h-0.6c0-1.7-1.4-3-3.1-3.1v0c-0.3,0-0.7-0.4-0.7-0.9l-0.1-3.3c0-0.8-0.6-1.3-1.4-1.3h-5.1
			c-0.8,0-1.4,0.6-1.5,1.3l-0.4,3.4c0,0.5-0.4,0.8-1,0.8v0C8.1,6.7,6.7,8,6.7,9.6v10.7c0,1.6,1.4,2.9,2.8,3.1v0c0.6,0,1,0.4,1,0.9
			l0.3,3.4c0,0.8,0.8,1.4,1.5,1.4h5.1c0.8,0,1.4-0.7,1.5-1.4l0.1-3.4c0-0.5,0.4-0.8,0.7-0.8v0c1.7-0.1,2.8-1.5,2.8-3.1v-0.2h0
			c0.2,0,0.2-0.1,0.2-0.3v-3.9c0-0.2-0.1-0.3-0.2-0.3h0v-2h0.8v-0.8h-0.6v-0.6h0.6v-0.3h-0.6v-0.6h0.6v-0.3h-0.6v-0.6H23.3z
			 M11.4,2.4c0-0.5,0.4-0.9,0.9-0.9h5.1c0.5,0,0.9,0.4,0.9,0.9l0,0.3h-6.9L11.4,2.4z M11.4,3.2h7l0.1,1.4h-7.2L11.4,3.2z M11.2,5.8
			l0-0.6h7.2l0,0.6c0,0.3,0.1,0.6,0.3,0.8h-7.8C11.1,6.3,11.2,6.1,11.2,5.8z M18.3,27.6c0,0.5-0.4,0.9-0.9,0.9h-5.1
			c-0.5,0-0.9-0.4-0.9-0.9l0-0.3h6.9L18.3,27.6z M18.3,26.8h-7l-0.1-1.4h7.2L18.3,26.8z M18.5,24.2l0,0.6h-7.2l0-0.6
			c0-0.3-0.1-0.6-0.3-0.8h7.8C18.6,23.7,18.5,23.9,18.5,24.2z M21.9,20.3c0,1.4-1.1,2.5-2.5,2.5H9.8c-1.4,0-2.5-1.1-2.5-2.5V9.7
			c0-1.4,1.1-2.5,2.5-2.5h9.5c1.4,0,2.5,1.1,2.5,2.5V20.3z"/>
		<path class="st8" d="M21,9.7C21,8.7,20.3,8,19.3,8H9.8C8.9,8,8.1,8.7,8.1,9.7v10.7c0,0.9,0.8,1.7,1.7,1.7h9.5
			c0.9,0,1.7-0.8,1.7-1.7V9.7z M16.3,9.9c0.8,0,1.4,0.6,1.4,1.4c0,0.8-0.6,1.4-1.4,1.4s-1.4-0.6-1.4-1.4
			C14.9,10.5,15.5,9.9,16.3,9.9z M12.9,9.9c0.8,0,1.4,0.6,1.4,1.4c0,0.8-0.6,1.4-1.4,1.4c-0.8,0-1.4-0.6-1.4-1.4
			C11.5,10.5,12.1,9.9,12.9,9.9z M9.5,14.9c0-0.8,0.6-1.4,1.4-1.4c0.8,0,1.4,0.6,1.4,1.4c0,0.8-0.6,1.4-1.4,1.4
			C10.2,16.3,9.5,15.7,9.5,14.9z M12.9,20c-0.8,0-1.4-0.6-1.4-1.4c0-0.8,0.6-1.4,1.4-1.4c0.8,0,1.4,0.6,1.4,1.4
			C14.3,19.4,13.7,20,12.9,20z M13.2,14.9c0-0.8,0.6-1.4,1.4-1.4s1.4,0.6,1.4,1.4c0,0.8-0.6,1.4-1.4,1.4S13.2,15.7,13.2,14.9z
			 M16.3,20c-0.8,0-1.4-0.6-1.4-1.4c0-0.8,0.6-1.4,1.4-1.4s1.4,0.6,1.4,1.4C17.7,19.4,17,20,16.3,20z M18.2,16.3
			c-0.8,0-1.4-0.6-1.4-1.4c0-0.8,0.6-1.4,1.4-1.4s1.4,0.6,1.4,1.4C19.6,15.7,19,16.3,18.2,16.3z"/>
	</g>
</g>
</svg>
