<?xml version="1.0" encoding="utf-8"?>
<!-- Generator: Adobe Illustrator 19.1.0, SVG Export Plug-In . SVG Version: 6.00 Build 0)  -->
<svg version="1.1" id="Layer_1" xmlns="http://www.w3.org/2000/svg" xmlns:xlink="http://www.w3.org/1999/xlink" x="0px" y="0px"
	 viewBox="0 0 30 30" style="enable-background:new 0 0 30 30;" xml:space="preserve">
<style type="text/css">
	.st0{fill:#00A3FF;}
</style>
<g id="Layer_46">
	<path class="st0" d="M21.3,7.1c-0.4-0.7-1.3-1-2.1-0.7c-0.8,0.3-1.3,1-1.2,1.8c0.2,1.5-0.1,2.7-0.9,3.6c-1.6-1.9-2.2-4.5-1.4-6.8
		c0.1-0.4,0.3-0.8,0.6-1.3c0.3-0.6,0.3-1.4-0.1-1.9C15.9,1.3,15.4,1,14.9,1c-0.6,0-1.1,0.3-1.4,0.7C12.6,2.9,5,13.5,5,19.5
		c0,5.3,4.5,9.5,9.9,9.5c5.5,0,10.2-4.4,10.2-9.5C25.1,15.5,23.6,10.8,21.3,7.1z M14.9,27.2c-2.9,0-5.2-1.9-5.2-4.2
		c0-2.5,3.6-7,4.8-8.5c0.1-0.1,0.4-0.1,0.4,0.1c0,0.7,0,1.8,0.2,2.9s0.6,2.1,1.3,2.6c1.2-0.7,1.7-1.5,1.7-2.6c0-0.2,0.3-0.2,0.4-0.1
		c1.2,1.9,1.8,4,1.8,5.5C20.3,25.4,17.8,27.2,14.9,27.2z"/>
</g>
</svg>
