<?xml version="1.0" encoding="utf-8"?>
<!-- Generator: Adobe Illustrator 19.1.0, SVG Export Plug-In . SVG Version: 6.00 Build 0)  -->
<svg version="1.1" id="Layer_1" xmlns="http://www.w3.org/2000/svg" xmlns:xlink="http://www.w3.org/1999/xlink" x="0px" y="0px"
	 viewBox="0 0 30 30" style="enable-background:new 0 0 30 30;" xml:space="preserve">
<style type="text/css">
	.st0{fill:#FFFFFF;}
</style>
<g id="Layer_40">
	<g>
		<g>
			<g>
				<path class="st0" d="M26.1,14H29c-0.2-3.1-1.4-5.9-3.3-8.1L23.6,8l-1.4-1.4l2.1-2.1c-2.2-1.9-5-3.2-8.1-3.4v3h-2V1
					c-3.1,0.2-6,1.4-8.2,3.3l2.2,2.2L6.6,8L4.4,5.8C2.5,8,1.2,10.8,1,14h3.2v2H1c0.5,7.3,6.6,13,14,13s13.5-5.7,14-13h-2.9V14
					L26.1,14z M15.1,23.4c-1.5,0-2.7-1.2-2.7-2.7c0-1.1,0.7-2.1,1.6-2.5l1-9.4h0.3l0.9,9.4c0.9,0.4,1.6,1.4,1.6,2.5
					C17.8,22.2,16.6,23.4,15.1,23.4z"/>
			</g>
		</g>
	</g>
</g>
</svg>
