<?xml version="1.0" encoding="utf-8"?>
<!-- Generator: Adobe Illustrator 19.1.0, SVG Export Plug-In . SVG Version: 6.00 Build 0)  -->
<svg version="1.1" id="Layer_1" xmlns="http://www.w3.org/2000/svg" xmlns:xlink="http://www.w3.org/1999/xlink" x="0px" y="0px"
	 viewBox="0 0 30 30" style="enable-background:new 0 0 30 30;" xml:space="preserve">
<style type="text/css">
	.st0{fill:#00A3FF;}
</style>
<g id="Layer_44">
	<g id="g1882_1_">
		<g id="g1884_1_">
			<path id="path1886_1_" class="st0" d="M7,13.1c1.4,0,2.6-1.2,2.6-2.6C9.6,9,8.4,7.8,7,7.8S4.4,9,4.4,10.4
				C4.4,11.9,5.5,13.1,7,13.1z"/>
			<path id="path1888_1_" class="st0" d="M7,10.4"/>
		</g>
		<path id="path1890_1_" class="st0" d="M12.6,9.7h10.5c1.5,0,2.4,1,2.4,2.3v3.8H12.6V9.7z"/>
		<path id="path1892_1_" class="st0" d="M9.8,11v2.3h-4c-1.9,0-1.9,2.5,0,2.5H11c0.8,0,1.3-0.6,1.3-1.3V11C12.3,9.2,9.8,9.2,9.8,11z
			"/>
		<path id="path1894_1_" class="st0" d="M3.9,7.5c0-2.1-2.9-2.1-2.9,0V24h2.9v-4.3h22.2V24H29V11.2c0-2.2-2.9-2.2-2.9,0v5.1H3.9V7.5
			z"/>
	</g>
</g>
</svg>
