<?xml version="1.0" encoding="utf-8"?>
<!-- Generator: Adobe Illustrator 19.1.0, SVG Export Plug-In . SVG Version: 6.00 Build 0)  -->
<svg version="1.1" id="Layer_1" xmlns="http://www.w3.org/2000/svg" xmlns:xlink="http://www.w3.org/1999/xlink" x="0px" y="0px"
	 viewBox="6 -6 30 30" style="enable-background:new 6 -6 30 30;" xml:space="preserve">
<style type="text/css">
	.st0{fill:#FFFFFF;}
</style>
<g id="Layer_30">
	<g>
		<path class="st0" d="M8.9,6.8c-1.3,0-2.3,1-2.3,2.3s1,2.3,2.3,2.3c1.3,0,2.3-1,2.3-2.3S10.3,6.8,8.9,6.8z M8.9-2.5
			c-1.3,0-2.3,1-2.3,2.3s1,2.3,2.3,2.3c1.3,0,2.3-1,2.3-2.3S10.3-2.5,8.9-2.5z M8.9,16.3c-1.1,0-2.1,0.9-2.1,2.1s0.9,2.1,2.1,2.1
			c1.2,0,2.1-0.9,2.1-2.1S10,16.3,8.9,16.3z M13.6,20h21.7v-3.1H13.6V20z M13.6,10.7h21.7V7.6H13.6V10.7z M13.6-1.7v3.1h21.7v-3.1
			H13.6z"/>
	</g>
</g>
</svg>
