<?xml version="1.0" encoding="utf-8"?>
<!-- Generator: Adobe Illustrator 19.1.0, SVG Export Plug-In . SVG Version: 6.00 Build 0)  -->
<svg version="1.1" id="Layer_1" xmlns="http://www.w3.org/2000/svg" xmlns:xlink="http://www.w3.org/1999/xlink" x="0px" y="0px"
	 viewBox="0 0 30 30" style="enable-background:new 0 0 30 30;" xml:space="preserve">
<style type="text/css">
	.st0{fill:#EF3E62;}
</style>
<g>
	<path class="st0" d="M23.5,29c-1.2,0-2.6-0.3-4.1-0.9C16,26.8,12.3,24.3,9,21c-3.3-3.3-5.8-7-7.1-10.4C0.7,7.5,0.7,5,1.9,3.8
		C2,3.7,2.2,3.5,2.4,3.3C3.4,2.2,4.6,0.9,6.2,1c1.1,0,2.1,0.7,3.2,2.1c3.2,4,1.8,5.4,0.1,7l-0.3,0.3c-0.3,0.3-0.8,1.5,4,6.3
		c1.6,1.6,2.9,2.7,4,3.4c0.7,0.4,1.9,1.1,2.4,0.6l0.3-0.3c1.6-1.7,3.1-3.1,7,0.1c1.3,1.1,2,2.1,2.1,3.2c0.1,1.6-1.2,2.8-2.3,3.8
		c-0.2,0.2-0.4,0.3-0.5,0.5C25.6,28.7,24.7,29,23.5,29z M6.1,1.9C5,1.9,4,3,3.1,4C2.9,4.1,2.7,4.3,2.5,4.5c-0.9,0.9-0.8,3.1,0.2,5.8
		c1.2,3.3,3.7,6.8,6.9,10.1c3.2,3.2,6.8,5.7,10.1,6.9c2.6,1,4.9,1.1,5.8,0.2c0.2-0.2,0.4-0.3,0.5-0.5c1-0.9,2.1-2,2-3.1
		c0-0.8-0.6-1.6-1.7-2.5c-3.3-2.7-4.2-1.7-5.8-0.2l-0.3,0.3c-0.7,0.7-1.9,0.6-3.5-0.5c-1.1-0.7-2.5-1.9-4.1-3.5c-4-4-5.3-6.4-4-7.7
		l0.3-0.3c1.6-1.5,2.5-2.5-0.2-5.8C7.8,2.6,7,2,6.1,1.9C6.2,1.9,6.1,1.9,6.1,1.9z"/>
</g>
</svg>
