<?xml version="1.0" encoding="utf-8"?>
<!-- Generator: Adobe Illustrator 19.1.0, SVG Export Plug-In . SVG Version: 6.00 Build 0)  -->
<svg version="1.1" id="Layer_1" xmlns="http://www.w3.org/2000/svg" xmlns:xlink="http://www.w3.org/1999/xlink" x="0px" y="0px"
	 viewBox="0 0 30 30" style="enable-background:new 0 0 30 30;" xml:space="preserve">
<style type="text/css">
	.st0{fill:#EDB11F;}
	.st1{fill:#FFFFFF;}
</style>
<path class="st0" d="M26.5,23.6l-9.8,5.7c-1,0.6-2.3,0.6-3.4,0l-9.8-5.7c-1-0.6-1.7-1.7-1.7-2.9V9.3c0-1.2,0.6-2.3,1.7-2.9l9.8-5.7
	c1-0.6,2.3-0.6,3.4,0l9.8,5.7c1,0.6,1.7,1.7,1.7,2.9v11.3C28.2,21.9,27.5,23,26.5,23.6z"/>
<g>
	<path class="st1" d="M13.1,20.9C13.1,20.9,13.1,20.9,13.1,20.9c-0.2,0-0.3-0.1-0.4-0.2l-1.9-4.8l-1.5,3.4c-0.1,0.1-0.2,0.2-0.3,0.2
		h-3c-0.2,0-0.4-0.2-0.4-0.4s0.2-0.4,0.4-0.4h2.8l1.8-3.9c0.1-0.1,0.2-0.2,0.4-0.2c0.2,0,0.3,0.1,0.3,0.2l2,4.9l1.5-2.7
		c0.1-0.1,0.2-0.2,0.3-0.2c0.1,0,0.3,0.1,0.3,0.2L16,18l1.3-6.2c0-0.2,0.2-0.3,0.4-0.3c0,0,0,0,0,0c0.2,0,0.3,0.1,0.4,0.3l1.1,6.9
		h4.2c0.2,0,0.4,0.2,0.4,0.4s-0.2,0.4-0.4,0.4h-4.5c-0.2,0-0.3-0.1-0.4-0.3l-0.8-5.2l-1.1,5.2c0,0.2-0.2,0.3-0.3,0.3
		c-0.2,0-0.3,0-0.4-0.2L15,17.8l-1.6,2.8C13.4,20.8,13.2,20.9,13.1,20.9z"/>
	<path class="st1" d="M8.2,10.1c0.2-0.5,0.7-0.9,1.3-0.9c0.8,0,1.3,0.6,1.4,1.4c0,0,0,0.2,0,0.5c-0.1,0.5-0.4,0.9-0.7,1.2l-1.8,1.6
		c0,0,0,0-0.1,0l-1.8-1.6C6,11.9,5.7,11.5,5.6,11c-0.1-0.3,0-0.5,0-0.5c0.1-0.7,0.6-1.4,1.4-1.4C7.5,9.1,8,9.6,8.2,10.1z"/>
	<path class="st1" d="M23.7,9.9h-1.5c-0.2,0-0.4-0.2-0.4-0.4c0-0.2,0.2-0.4,0.4-0.4h1.5c0.2,0,0.4,0.2,0.4,0.4
		C24.1,9.7,23.9,9.9,23.7,9.9z"/>
	<path class="st1" d="M24.1,11.4h-3c-0.2,0-0.4-0.2-0.4-0.4c0-0.2,0.2-0.4,0.4-0.4h3c0.2,0,0.4,0.2,0.4,0.4
		C24.5,11.2,24.3,11.4,24.1,11.4z"/>
	<path class="st1" d="M23.7,12.9h-1.5c-0.2,0-0.4-0.2-0.4-0.4c0-0.2,0.2-0.4,0.4-0.4h1.5c0.2,0,0.4,0.2,0.4,0.4
		C24.1,12.8,23.9,12.9,23.7,12.9z"/>
</g>
</svg>
