<?xml version="1.0" encoding="utf-8"?>
<!-- Generator: Adobe Illustrator 19.1.0, SVG Export Plug-In . SVG Version: 6.00 Build 0)  -->
<svg version="1.1" id="Layer_1" xmlns="http://www.w3.org/2000/svg" xmlns:xlink="http://www.w3.org/1999/xlink" x="0px" y="0px"
	 viewBox="0 0 30 30" style="enable-background:new 0 0 30 30;" xml:space="preserve">
<style type="text/css">
	.st0{fill:#EF4463;}
</style>
<g id="Layer_49">
	<g>
		<path class="st0" d="M27.4,24.2c-2.4-2.4-3.6-5.2-3.6-8.5V11c0-3.6-2.4-5.9-4.4-6.9c-0.6-0.3-1.2-0.5-1.8-0.6V3.3
			c0-1.4-1.2-2.6-2.6-2.6s-2.6,1.2-2.6,2.6v0.3c-0.6,0.2-1.1,0.3-1.6,0.6c-2.3,1-4.6,3.6-4.6,6.9v4.7c0,3.3-1.2,6.2-3.5,8.5
			c-0.1,0.1-0.2,0.3-0.1,0.5C2.7,25,2.8,25.1,3,25.2L7.8,26c0.9,0.2,1.8,0.3,2.6,0.4c0.9,1.8,2.7,2.9,4.6,2.9s3.7-1.1,4.6-2.9
			c0.8-0.1,1.6-0.2,2.6-0.4l4.9-0.9c0.2,0,0.3-0.2,0.4-0.4C27.6,24.6,27.5,24.4,27.4,24.2z M13.4,3.3c0-0.9,0.7-1.6,1.6-1.6
			c0.9,0,1.6,0.7,1.6,1.6v0.1c-1-0.1-2.1-0.1-3.1,0V3.3H13.4z M15,28.2c-1.3,0-2.5-0.7-3.3-1.7c1.2,0.1,2.2,0.2,3.3,0.2
			s2.2-0.1,3.3-0.2C17.5,27.6,16.3,28.2,15,28.2z M22,24.9c-1,0.2-1.9,0.3-2.8,0.4l0,0c-0.4,0-0.7,0.1-1.1,0.1l0,0
			c-0.3,0-0.7,0.1-1,0.1c-0.1,0-0.1,0-0.2,0c-0.3,0-0.6,0-0.8,0c-0.1,0-0.1,0-0.2,0c-0.6,0-1.3,0-1.9,0c-0.1,0-0.1,0-0.2,0
			c-0.3,0-0.5,0-0.8,0c-0.1,0-0.1,0-0.2,0c-0.3,0-0.6,0-0.9-0.1l0,0c-0.4,0-0.7-0.1-1.1-0.1l0,0c-0.9,0-1.8-0.2-2.8-0.4l-4-0.7
			c2.1-2.4,3.1-5.2,3.1-8.5V11c0-2.8,2-5,4-5.9c0.6-0.3,1.2-0.5,1.8-0.6l0,0c1.3-0.3,2.6-0.3,3.9,0l0,0c0.7,0.1,1.3,0.4,2,0.6
			c1.9,0.9,3.8,3,3.8,5.9v4.7c0,3.1,1.1,6,3.3,8.5L22,24.9z"/>
		<path class="st0" d="M18.2,6.6c-2-0.9-4.5-0.9-6.5,0c-1.1,0.5-3.1,2.1-3.1,4.5c0,0.3,0.2,0.5,0.5,0.5l0,0c0.3,0,0.5-0.2,0.5-0.5
			c0-1.9,1.6-3.1,2.5-3.6c1.7-0.8,3.9-0.8,5.6,0c0.3,0.1,0.6,0,0.7-0.3C18.6,7,18.5,6.7,18.2,6.6z"/>
	</g>
</g>
</svg>
