<?xml version="1.0" encoding="utf-8"?>
<!-- Generator: Adobe Illustrator 19.1.0, SVG Export Plug-In . SVG Version: 6.00 Build 0)  -->
<svg version="1.1" id="Layer_1" xmlns="http://www.w3.org/2000/svg" xmlns:xlink="http://www.w3.org/1999/xlink" x="0px" y="0px"
	 viewBox="0 0 44 44" style="enable-background:new 0 0 44 44;" xml:space="preserve">
<style type="text/css">
	.st0{fill:#FFFFFF;}
</style>
<g>
	<path class="st0" d="M40.6,35.8c-3.6-3.6-5.5-7.9-5.5-12.7v-7c0-5.3-3.6-8.9-6.6-10.3c-0.9-0.4-1.8-0.7-2.7-0.9V4.5
		c0-2.1-1.7-3.9-3.9-3.9S18,2.4,18,4.5V5c-0.8,0.2-1.7,0.5-2.4,0.9c-3.4,1.6-6.9,5.3-6.9,10.3v7c0,5-1.8,9.2-5.2,12.7
		c-0.2,0.2-0.3,0.5-0.2,0.8s0.3,0.5,0.6,0.5l7.4,1.3c1.4,0.2,2.6,0.4,3.8,0.6c1.4,2.7,4,4.4,6.9,4.4c2.9,0,5.6-1.7,6.9-4.4
		c1.2-0.2,2.5-0.4,3.8-0.6l7.4-1.3c0.3,0,0.5-0.3,0.6-0.5C40.8,36.3,40.8,36,40.6,35.8z M19.5,4.5c0-1.3,1-2.3,2.3-2.3
		s2.3,1,2.3,2.3v0.1c-1.5-0.2-3.1-0.2-4.7,0V4.5z M22,41.8c-2,0-3.8-1-5-2.6c1.7,0.2,3.4,0.3,5,0.3c1.6,0,3.3-0.1,5-0.3
		C25.8,40.8,24,41.8,22,41.8z M32.5,36.9c-1.5,0.3-2.9,0.5-4.2,0.6c0,0,0,0,0,0c-0.6,0.1-1.1,0.1-1.7,0.2c0,0,0,0,0,0
		c-0.5,0-1,0.1-1.5,0.1c-0.1,0-0.2,0-0.3,0c-0.4,0-0.8,0-1.2,0.1c-0.1,0-0.2,0-0.3,0c-1,0-1.9,0-2.9,0c-0.1,0-0.2,0-0.3,0
		c-0.4,0-0.8,0-1.2-0.1c-0.1,0-0.2,0-0.3,0c-0.5,0-0.9-0.1-1.4-0.1c0,0,0,0,0,0c-0.5-0.1-1.1-0.1-1.7-0.2c0,0,0,0,0,0
		c-1.3-0.2-2.7-0.4-4.2-0.6l-6-1c3.1-3.5,4.7-7.8,4.7-12.7v-7c0-4.2,3-7.5,6-8.9c0.9-0.4,1.8-0.7,2.7-0.9c0,0,0,0,0,0
		c1.9-0.4,4-0.5,5.9-0.1c0,0,0,0,0,0c1,0.2,2,0.5,3,1c2.9,1.3,5.7,4.6,5.7,8.9v7c0,4.7,1.7,9,4.9,12.7L32.5,36.9z"/>
	<path class="st0" d="M26.9,9.4c-3-1.4-6.7-1.4-9.7,0c-1.7,0.8-4.6,3.1-4.6,6.7c0,0.4,0.3,0.8,0.8,0.8c0,0,0,0,0,0
		c0.4,0,0.8-0.3,0.8-0.8c0-2.9,2.3-4.7,3.7-5.3c2.6-1.2,5.8-1.2,8.4,0c0.4,0.2,0.9,0,1-0.4C27.4,10.1,27.2,9.6,26.9,9.4z"/>
</g>
</svg>
