<?xml version="1.0" encoding="utf-8"?>
<!-- Generator: Adobe Illustrator 19.1.0, SVG Export Plug-In . SVG Version: 6.00 Build 0)  -->
<svg version="1.1" id="Layer_1" xmlns="http://www.w3.org/2000/svg" xmlns:xlink="http://www.w3.org/1999/xlink" x="0px" y="0px"
	 viewBox="0 0 30 30" style="enable-background:new 0 0 30 30;" xml:space="preserve">
<style type="text/css">
	.st0{fill:#FFFFFF;}
</style>
<g id="Layer_43">
	<g>
		<path class="st0" d="M15.4,20.5h-0.8c-0.5,0-0.9,0.4-0.9,0.9V28c0,0.5,0.4,0.9,0.9,0.9h0.8c0.5,0,0.9-0.4,0.9-0.9v-6.6
			C16.3,21,15.9,20.5,15.4,20.5"/>
		<path class="st0" d="M12.5,12.6v-1.2l-0.1-0.1l-0.3,0.3v0.9l0.1,0.4C12.4,12.8,12.4,12.7,12.5,12.6"/>
		<path class="st0" d="M14.4,11.4v0.9l0.1,0.4c0.1,0,0.2-0.1,0.2-0.2v-1.2l-0.1-0.1L14.4,11.4z"/>
		<path class="st0" d="M13.1,12.8h1.3l-0.1-0.4h-1.1l-0.4,0.1C13,12.7,13,12.8,13.1,12.8"/>
		<polygon class="st0" points="13.4,11.4 13,11.3 12.9,11.4 12.9,12.4 13.4,12.4 		"/>
		<polygon class="st0" points="15.6,13.2 15.6,12.4 15.3,12.4 15.3,13.2 15.4,13.4 		"/>
		<path class="st0" d="M17.5,12.4l0.1,0.4c0.1,0,0.2-0.1,0.2-0.2v-1.2l-0.1-0.1l-0.3,0.3L17.5,12.4L17.5,12.4z"/>
		<path class="st0" d="M16.3,12.8h1.3l-0.1-0.4h-1.1L16,12.6C16,12.7,16.1,12.8,16.3,12.8"/>
		<polygon class="st0" points="16.4,11.4 16.1,11.3 16,11.4 16,12.4 16.4,12.4 		"/>
		<path class="st0" d="M19.4,14.6h-8.8V4.5h8.8V14.6z M18.6,18H18c-0.4,0-0.7-0.3-0.7-0.7s0.3-0.7,0.7-0.7h0.6
			c0.4,0,0.7,0.3,0.7,0.7C19.3,17.5,19,18,18.6,18z M21.6,4.8c0-2-1.6-3.7-3.6-3.7h-6c-2,0-3.7,1.7-3.7,3.7v8v0.1c0,0.1,0,0.2,0,0.2
			v2.1c0,3.1,2.1,5.7,4.9,6.4v-0.1c0-0.6,0.5-1.2,1.1-1.3V18c0-0.2,0.1-0.3,0.2-0.4c0.1-0.1,0.3-0.2,0.4-0.2c0.2,0,0.3,0.1,0.4,0.2
			c0.1,0.1,0.2,0.3,0.2,0.4v2.2c0.6,0.1,1.1,0.6,1.1,1.3v0.1c2.8-0.8,4.9-3.3,4.9-6.4v-2.1c0-0.1,0-0.2,0-0.2v-0.1L21.6,4.8
			L21.6,4.8L21.6,4.8z"/>
		<path class="st0" d="M15.4,21.2c0,0.2-0.1,0.4-0.3,0.4c-0.2,0-0.3-0.2-0.3-0.4v-3c0-0.2,0.1-0.4,0.3-0.4c0.2,0,0.3,0.2,0.3,0.4
			V21.2z"/>
	</g>
</g>
</svg>
