<?xml version="1.0" encoding="utf-8"?>
<!-- Generator: Adobe Illustrator 19.1.0, SVG Export Plug-In . SVG Version: 6.00 Build 0)  -->
<svg version="1.1" xmlns="http://www.w3.org/2000/svg" xmlns:xlink="http://www.w3.org/1999/xlink" x="0px" y="0px"
	 viewBox="0 0 30 30" style="enable-background:new 0 0 30 30;" xml:space="preserve">
<style type="text/css">
	.st0{display:none;}
	.st1{display:inline;}
	.st2{fill:#EF3E62;}
	.st3{fill:none;stroke:#EF3F62;stroke-miterlimit:10;}
	.st4{fill:#EF4062;}
</style>
<g id="Layer_1" class="st0">
	<g class="st1">
		<path class="st2" d="M23.5,29c-1.2,0-2.6-0.3-4.1-0.9C16,26.8,12.3,24.3,9,21c-3.3-3.3-5.8-7-7.1-10.4C0.7,7.5,0.7,5,1.9,3.8
			C2,3.7,2.2,3.5,2.4,3.3C3.4,2.2,4.6,0.9,6.2,1c1.1,0,2.1,0.7,3.2,2.1c3.2,4,1.8,5.4,0.1,7l-0.3,0.3c-0.3,0.3-0.8,1.5,4,6.3
			c1.6,1.6,2.9,2.7,4,3.4c0.7,0.4,1.9,1.1,2.4,0.6l0.3-0.3c1.6-1.7,3.1-3.1,7,0.1c1.3,1.1,2,2.1,2.1,3.2c0.1,1.6-1.2,2.8-2.3,3.8
			c-0.2,0.2-0.4,0.3-0.5,0.5C25.6,28.7,24.7,29,23.5,29z M6.1,1.9C5,1.9,4,3,3.1,4C2.9,4.1,2.7,4.3,2.5,4.5
			c-0.9,0.9-0.8,3.1,0.2,5.8c1.2,3.3,3.7,6.8,6.9,10.1c3.2,3.2,6.8,5.7,10.1,6.9c2.6,1,4.9,1.1,5.8,0.2c0.2-0.2,0.4-0.3,0.5-0.5
			c1-0.9,2.1-2,2-3.1c0-0.8-0.6-1.6-1.7-2.5c-3.3-2.7-4.2-1.7-5.8-0.2l-0.3,0.3c-0.7,0.7-1.9,0.6-3.5-0.5c-1.1-0.7-2.5-1.9-4.1-3.5
			c-4-4-5.3-6.4-4-7.7l0.3-0.3c1.6-1.5,2.5-2.5-0.2-5.8C7.8,2.6,7,2,6.1,1.9C6.2,1.9,6.1,1.9,6.1,1.9z"/>
	</g>
</g>
<g id="Layer_2" class="st0">
	<g class="st1">
		<g>
			<path class="st2" d="M23.5,20.3c-0.1,0-0.2,0-0.3-0.1l-5.1-4.8c-0.2-0.2-0.2-0.4,0-0.6c0.2-0.2,0.4-0.2,0.6,0l5.1,4.8
				c0.2,0.2,0.2,0.4,0,0.6C23.8,20.3,23.7,20.3,23.5,20.3z"/>
			<path class="st2" d="M6.5,20.3c-0.1,0-0.2,0-0.3-0.1C6,20,6,19.7,6.2,19.6l5.1-4.8c0.2-0.2,0.5-0.2,0.6,0c0.2,0.2,0.2,0.5,0,0.6
				l-5.1,4.8C6.7,20.3,6.6,20.3,6.5,20.3z"/>
		</g>
		<path class="st2" d="M26.6,24.8H3.4c-1.2,0-2.2-1-2.2-2.2V7.4c0-1.2,1-2.2,2.2-2.2h23.1c1.2,0,2.2,1,2.2,2.2v15.2
			C28.8,23.8,27.8,24.8,26.6,24.8z M3.4,6.1c-0.7,0-1.3,0.6-1.3,1.3v15.2c0,0.7,0.6,1.3,1.3,1.3h23.1c0.7,0,1.3-0.6,1.3-1.3V7.4
			c0-0.7-0.6-1.3-1.3-1.3H3.4z"/>
		<path class="st2" d="M15,17.2c-0.6,0-1.2-0.2-1.6-0.6L1.9,6.7c-0.2-0.2-0.2-0.4,0-0.6c0.2-0.2,0.4-0.2,0.6,0L14,16
			c0.6,0.5,1.5,0.5,2.1,0L27.5,6c0.2-0.2,0.5-0.1,0.6,0c0.2,0.2,0.1,0.5,0,0.6l-11.4,9.9C16.2,17,15.6,17.2,15,17.2z"/>
	</g>
</g>
<g id="Layer_3" class="st0">
	<g id="XMLID_91_" class="st1">
		<g id="XMLID_92_">
			<path id="XMLID_93_" class="st3" d="M27.3,6.9c-0.3-0.2-0.7-0.3-1.1-0.2C25.5,6.9,24.8,7,24,7c-2.1,0-4.1-0.6-5.7-1.7
				c-1.3-0.9-2.1-2.1-2.1-3.2c0-0.7-0.6-1.3-1.3-1.3c-0.7,0-1.3,0.6-1.3,1.3c0,1.1-0.8,2.3-2.1,3.2C10.1,6.4,8,7,6,7
				C5.2,7,4.5,6.9,3.8,6.7C3.4,6.6,3,6.6,2.7,6.9c-0.3,0.2-0.5,0.6-0.5,1c0,6.9,3,12.3,4.8,14.9c1.3,1.8,2.7,3.4,4.1,4.5
				c1,0.8,2.6,1.9,4,1.9s2.9-1,4-1.9c1.4-1.2,2.8-2.7,4.1-4.5c1.8-2.6,4.8-8,4.8-14.9C27.9,7.5,27.7,7.1,27.3,6.9z M20.9,21.3
				c-2.6,3.7-5.1,5.3-5.9,5.3c-0.8,0-3.3-1.6-5.9-5.3c-1.5-2.2-3.9-6.4-4.3-11.8c0.4,0,0.8,0.1,1.2,0.1c2.6,0,5.2-0.8,7.1-2.1
				c0.8-0.5,1.4-1.1,1.9-1.8c0.5,0.7,1.1,1.3,1.9,1.8c2,1.4,4.5,2.1,7.1,2.1c0.4,0,0.8,0,1.2-0.1C24.8,14.9,22.4,19.2,20.9,21.3z"/>
		</g>
		<g id="XMLID_104_">
			<circle id="XMLID_105_" class="st3" cx="15" cy="12.1" r="3.1"/>
		</g>
		<g id="XMLID_106_">
			<path id="XMLID_107_" class="st3" d="M15,15.3c-2.7,0-4.9,2.2-4.9,4.9h9.8C19.9,17.5,17.7,15.3,15,15.3z"/>
		</g>
	</g>
</g>
<g id="Layer_4">
	<g>
		<g>
			<path class="st4" d="M21.9,9c3.9,0,6.8-1.5,6.8-3.5s-2.9-3.5-6.8-3.5s-6.8,1.5-6.8,3.5C15.1,7.4,18.1,9,21.9,9z M21.9,3.4
				c3.2,0,5.3,1.2,5.3,2s-2.1,2-5.3,2s-5.3-1.2-5.3-2S18.7,3.4,21.9,3.4z"/>
			<path class="st4" d="M28.2,9c-0.4-0.1-0.8,0.1-1,0.4c-0.3,0.9-2.4,1.8-5.3,1.8c-2.8,0-4.8-0.9-5.2-1.7c-0.2-0.4-0.6-0.5-1-0.4
				s-0.5,0.6-0.4,1c0.7,1.6,3.4,2.6,6.6,2.6c1.5,0,3-0.2,4.2-0.7c1.3-0.5,2.2-1.2,2.5-2.1C28.7,9.6,28.5,9.2,28.2,9z"/>
			<path class="st4" d="M28.2,12.8c-0.4-0.1-0.8,0.1-1,0.4c-0.3,0.9-2.4,1.8-5.3,1.8c-2.8,0-4.8-0.9-5.2-1.7c-0.2-0.4-0.6-0.5-1-0.4
				c-0.4,0.2-0.5,0.6-0.4,1c0.7,1.6,3.4,2.6,6.6,2.6c1.5,0,3-0.2,4.2-0.7c1.3-0.5,2.2-1.2,2.5-2.1C28.7,13.4,28.5,13,28.2,12.8z"/>
			<path class="st4" d="M28.2,16.7c-0.4-0.1-0.8,0.1-1,0.4c-0.3,0.9-2.4,1.8-5.3,1.8c-2.8,0-4.8-0.9-5.2-1.7c-0.2-0.4-0.6-0.5-1-0.4
				c-0.4,0.2-0.5,0.6-0.4,1c0.7,1.6,3.4,2.6,6.6,2.6c1.5,0,3-0.2,4.2-0.7c1.3-0.5,2.2-1.2,2.5-2.1C28.7,17.2,28.5,16.8,28.2,16.7z"
				/>
			<path class="st4" d="M28.2,20.5c-0.4-0.1-0.8,0.1-1,0.4c-0.3,0.9-2.4,1.8-5.3,1.8c-2.8,0-4.8-0.9-5.2-1.7c-0.2-0.4-0.6-0.5-1-0.4
				c-0.4,0.2-0.5,0.6-0.4,1c0.7,1.6,3.4,2.6,6.6,2.6c1.5,0,3-0.2,4.2-0.7c1.3-0.5,2.2-1.2,2.5-2.1C28.7,21.1,28.5,20.6,28.2,20.5z"
				/>
			<path class="st4" d="M28.2,24.3c-0.4-0.1-0.8,0.1-1,0.4c-0.3,0.9-2.4,1.8-5.3,1.8c-2.8,0-4.8-0.9-5.2-1.7c-0.2-0.4-0.6-0.5-1-0.4
				c-0.4,0.2-0.5,0.6-0.4,1c0.7,1.6,3.4,2.6,6.6,2.6c1.5,0,3-0.2,4.2-0.7c1.3-0.5,2.2-1.2,2.5-2.1C28.7,24.9,28.5,24.5,28.2,24.3z"
				/>
			<path class="st4" d="M14.3,16.7c-0.4-0.1-0.8,0.1-1,0.4c-0.3,0.9-2.4,1.8-5.3,1.8c-2.8,0-4.8-0.9-5.2-1.7c-0.2-0.4-0.6-0.5-1-0.4
				c-0.4,0.2-0.5,0.6-0.4,1c0.7,1.6,3.4,2.6,6.6,2.6c1.5,0,3-0.2,4.2-0.7c1.3-0.5,2.2-1.2,2.5-2.1C14.9,17.2,14.7,16.8,14.3,16.7z"
				/>
			<path class="st4" d="M14.3,20.5c-0.4-0.1-0.8,0.1-1,0.4c-0.3,0.9-2.4,1.8-5.3,1.8c-2.8,0-4.8-0.9-5.2-1.7c-0.2-0.4-0.6-0.5-1-0.4
				c-0.4,0.2-0.5,0.6-0.4,1c0.7,1.6,3.4,2.6,6.6,2.6c1.5,0,3-0.2,4.2-0.7c1.3-0.5,2.2-1.2,2.5-2.1C14.9,21.1,14.7,20.6,14.3,20.5z"
				/>
			<path class="st4" d="M14.3,24.3c-0.4-0.1-0.8,0.1-1,0.4c-0.3,0.9-2.4,1.8-5.3,1.8c-2.8,0-4.8-0.9-5.2-1.7c-0.2-0.4-0.6-0.5-1-0.4
				c-0.4,0.2-0.5,0.6-0.4,1c0.7,1.6,3.4,2.6,6.6,2.6c1.5,0,3-0.2,4.2-0.7c1.3-0.5,2.2-1.2,2.5-2.1C14.9,24.9,14.7,24.5,14.3,24.3z"
				/>
			<path class="st4" d="M8.1,9.6c-3.9,0-6.8,1.5-6.8,3.5s2.9,3.5,6.8,3.5s6.8-1.5,6.8-3.5S11.9,9.6,8.1,9.6z M8.1,15.1
				c-3.2,0-5.3-1.2-5.3-2c0-0.8,2.1-2,5.3-2s5.3,1.2,5.3,2C13.4,13.9,11.3,15.1,8.1,15.1z"/>
		</g>
	</g>
</g>
</svg>
